<svg width="347" height="53" viewBox="0 0 347 53" fill="none" xmlns="http://www.w3.org/2000/svg">
    <path d="M26.705 37.5478L26.3418 37.0446L28.5209 37.5478V38.8159L24.8487 38.9769L24.5057 36.6823L24.7075 36.7628C24.0215 37.5478 23.2548 38.1315 22.4477 38.4939C21.6407 38.8763 20.8538 39.0575 20.1072 39.0575C19.1791 39.0575 18.372 38.7555 17.7062 38.1517C17.0404 37.5478 16.6974 36.642 16.6974 35.4343C16.6974 34.5084 16.8992 33.7838 17.3027 33.2805C17.7062 32.7572 18.2712 32.3949 18.9975 32.1735C19.7239 31.952 20.5713 31.8313 21.5599 31.8313H24.5057L24.2838 32.0929V30.0398C24.2838 29.2145 24.0619 28.6308 23.6381 28.2685C23.1943 27.9062 22.589 27.725 21.8222 27.725C21.4187 27.725 20.995 27.7653 20.5511 27.8458C20.1072 27.9263 19.623 28.0471 19.1186 28.2282L19.4616 27.8861L19.1993 29.9996H17.6053L17.4036 26.8192C18.3922 26.5173 19.3002 26.2959 20.1274 26.1349C20.9547 25.994 21.7214 25.9135 22.4477 25.9135C23.7996 25.9135 24.8487 26.2154 25.6155 26.7991C26.362 27.3828 26.7453 28.3088 26.7453 29.597V37.5478H26.705ZM19.1388 35.2733C19.1388 35.9576 19.3002 36.4609 19.6432 36.7829C19.9862 37.105 20.4099 37.266 20.9345 37.266C21.4591 37.266 22.024 37.105 22.6495 36.7829C23.275 36.4609 23.8803 36.018 24.4452 35.4746L24.304 36.0784V33.1195L24.5259 33.3611H21.9433C20.8739 33.3611 20.1476 33.5221 19.7441 33.8441C19.3405 34.1662 19.1388 34.6292 19.1388 35.2733Z"
          fill="black" />
    <path d="M68.7531 28.3491C68.511 29.597 68.1075 30.6035 67.5022 31.3482C66.9171 32.1131 66.11 32.878 65.1213 33.663C65.3029 33.7435 65.424 33.8241 65.4643 33.9247C65.5047 34.0253 65.5249 34.1461 65.5249 34.287L65.4442 34.4883C65.202 34.3071 64.9801 34.2065 64.7783 34.1864C64.5766 34.1662 64.3748 34.2065 64.1932 34.3071C64.0116 34.3877 63.83 34.5084 63.6484 34.6493C63.4669 34.7902 63.2853 34.9513 63.1037 35.0922C62.5186 35.0922 61.9133 35.1727 61.2878 35.3337C60.6623 35.4947 60.0368 35.6155 59.4517 35.696C58.8666 35.7765 58.3218 35.7363 57.8174 35.5551C57.313 35.3941 56.9095 34.9714 56.5866 34.287C56.3849 34.2065 56.1629 34.1461 55.941 34.0656C55.719 34.0052 55.4971 33.9448 55.2953 33.8844C54.8514 34.7097 54.3067 35.5149 53.661 36.2798C53.0154 37.0446 52.3092 37.7491 51.5223 38.4134C50.7354 39.0776 49.9082 39.6614 49.0204 40.1847C48.1326 40.708 47.265 41.1106 46.3974 41.3924L46.2764 41.4327C46.1755 41.2716 46.0746 41.171 45.9939 41.1308C45.9132 41.0704 45.8325 41.0704 45.7316 41.0905C45.6307 41.1106 45.5298 41.1509 45.4088 41.1911C45.2877 41.2314 45.1465 41.2515 44.9649 41.2515L44.6824 41.7145C44.3193 41.4528 44.0973 41.171 44.0166 40.849C43.9359 40.5269 43.7341 40.3055 43.4315 40.1646L43.0683 40.5873L42.9472 40.4665C42.4832 40.0035 42.0595 39.3997 41.7165 38.6348C41.3735 37.89 41.091 37.0849 40.8892 36.2395C40.6875 35.3941 40.5462 34.5688 40.4655 33.7435C40.405 32.9183 40.405 32.1936 40.4857 31.5696C40.2839 31.3684 40.0216 31.1872 39.7392 31.0262C39.4567 30.8651 39.2751 30.6437 39.2347 30.3217L39.2751 30.2814C39.3356 29.9795 39.4769 29.7581 39.719 29.6574C39.9611 29.5568 40.2436 29.4964 40.526 29.4561C40.8085 29.436 41.091 29.4159 41.3533 29.4159C41.6156 29.4159 41.777 29.3555 41.8577 29.2549C41.8577 29.0938 41.7972 28.9529 41.6761 28.7919C41.5551 28.6309 41.4542 28.49 41.3331 28.3692C41.3331 28.1075 41.3936 27.9264 41.5349 27.7855C41.6559 27.6647 41.8173 27.5439 41.9586 27.4433C42.0998 27.3426 42.2612 27.242 42.3823 27.1615C42.5034 27.081 42.5841 26.9803 42.5841 26.8595C42.5841 26.7589 42.5639 26.6583 42.5034 26.5979C42.4428 26.5174 42.4025 26.4167 42.3419 26.2959C42.7455 26.2356 42.9674 26.1148 43.0481 25.9135C43.1288 25.7122 43.2902 25.4908 43.5525 25.2493C43.3911 25.048 43.3709 24.8266 43.4718 24.5649C43.5727 24.3233 43.6938 24.0818 43.835 23.8201C43.9561 23.5786 44.057 23.337 44.1377 23.1156C44.1982 22.8942 44.1377 22.6929 43.9157 22.5118C43.8955 22.5118 43.8754 22.5118 43.8754 22.4916C43.8754 22.4715 43.8552 22.4715 43.835 22.4715C44.3798 20.8612 44.9245 19.2509 45.4693 17.6406C46.0141 16.0303 46.579 14.42 47.2045 12.85C47.83 11.28 48.4958 9.70994 49.2222 8.2003C49.9485 6.67052 50.7556 5.181 51.6837 3.73173C51.7039 3.38955 51.8048 3.12788 51.9864 2.94672C52.1478 2.76556 52.3697 2.62466 52.5917 2.54415C52.8338 2.46363 53.0961 2.36299 53.3785 2.28247C53.661 2.20196 53.9233 2.10132 54.1654 1.96042C54.4076 1.81952 54.5891 1.63836 54.7506 1.39681C54.912 1.15527 54.9927 0.833211 54.9927 0.390381C55.4164 0.491024 55.7997 0.55141 56.1831 0.55141C56.5463 0.55141 56.9095 0.571539 57.2726 0.591668C57.6358 0.611797 57.9586 0.692313 58.3016 0.833213C58.6245 0.953985 58.9473 1.21566 59.2701 1.61823L59.3105 1.65849C59.3307 1.75913 59.3307 1.92016 59.2903 2.10132C59.2499 2.28247 59.2298 2.46363 59.2298 2.5844C59.2298 3.10775 59.2701 3.63109 59.371 4.17457C59.4719 4.71804 59.4921 5.26151 59.4719 5.78486C59.4517 6.3082 59.3307 6.81142 59.1087 7.25425C58.9069 7.71721 58.5034 8.09965 57.9183 8.44184C58.1806 9.10608 58.1806 9.70994 57.9385 10.2534C57.6964 10.7768 57.3533 11.3001 56.9296 11.7832C56.5059 12.2663 56.1024 12.7896 55.719 13.2928C55.3357 13.8162 55.1541 14.3999 55.1541 15.044C54.7304 15.2453 54.4076 15.5472 54.1654 15.9096C53.9233 16.292 53.7014 16.6745 53.4794 17.0972C53.2575 17.5199 53.0154 17.9023 52.7329 18.2445C52.4504 18.5867 52.0469 18.8483 51.5223 19.0094C51.2802 19.9353 50.8565 20.7606 50.231 21.4852C49.6055 22.2098 48.9599 22.9143 48.294 23.6188C47.6282 24.3233 47.0431 25.048 46.5387 25.7927C46.0343 26.5375 45.772 27.403 45.772 28.3893C45.0456 29.0938 44.5614 29.899 44.3394 30.8048C44.1175 31.7105 43.9964 32.6365 43.9964 33.6026C43.9964 33.8844 44.0166 34.1662 44.0368 34.448C44.057 34.7298 44.0771 35.0116 44.0771 35.2934C43.8754 35.1727 43.6736 35.2129 43.5324 35.4545L43.492 35.535C43.6938 36.0785 43.9359 36.6018 44.2184 37.105C44.5008 37.6082 44.8438 38.0913 45.2675 38.514C45.9536 38.3127 46.6194 38.0712 47.3054 37.8297C47.9712 37.5881 48.6572 37.3667 49.3836 37.1855C49.545 36.5616 49.8275 36.1389 50.2714 35.8772C50.7152 35.6155 51.1389 35.4142 51.5627 35.2331C51.9864 35.0519 52.3899 34.8305 52.7329 34.5688C53.0759 34.3071 53.2373 33.8442 53.2373 33.1799H53.318C53.7216 33.0994 54.004 32.9183 54.226 32.6566C54.4277 32.3748 54.6093 32.0729 54.7102 31.7307C54.8313 31.3885 54.912 31.006 54.9523 30.6236C54.9927 30.2412 55.033 29.8788 55.0532 29.5769C54.9725 29.4561 54.9523 29.2549 54.9927 29.0133C55.033 28.7718 55.0734 28.5101 55.1137 28.2283C55.1541 27.9666 55.1743 27.6848 55.1541 27.403C55.1339 27.1212 55.0734 26.8595 54.9321 26.618V26.5375L54.9725 26.457C55.0936 26.1953 55.2348 25.9538 55.376 25.7323C55.4971 25.5109 55.6182 25.2694 55.7392 25.0077C56.0015 24.3032 56.3042 23.7597 56.6472 23.3773C56.9902 22.9948 57.5753 22.7936 58.4227 22.7936C58.9473 23.0955 59.25 23.4377 59.3508 23.8C59.4517 24.1623 59.4315 24.5447 59.3307 24.9674C59.2298 25.3902 59.1087 25.8129 58.9675 26.2758C58.8262 26.7388 58.8061 27.1816 58.8868 27.6244L58.9675 27.7452C58.8061 27.7653 58.6648 27.8458 58.5438 27.9867C58.4025 28.1075 58.2815 28.2484 58.1402 28.4095C57.999 28.5705 57.8779 28.7114 57.7569 28.8724C57.6358 29.0334 57.5349 29.1542 57.4542 29.2549C57.6358 29.5367 57.7367 29.8386 57.7771 30.1204C57.7972 30.4223 57.8376 30.684 57.8779 30.9457C57.9183 31.2073 58.0192 31.4086 58.2008 31.6099C58.3622 31.8112 58.685 31.9118 59.1289 31.932C59.593 31.9924 60.0974 32.0527 60.5816 32.1332C61.086 32.2138 61.5703 32.254 62.0545 32.2741C62.5387 32.2943 63.023 32.2339 63.4669 32.1332C63.9309 32.0326 64.3546 31.8112 64.738 31.469C64.738 31.1268 64.8187 30.9054 64.9599 30.8048C65.1012 30.7041 65.2828 30.6437 65.4643 30.6035C65.6661 30.5833 65.8679 30.5632 66.0696 30.5431C66.2714 30.523 66.453 30.4424 66.5741 30.2613C66.4126 30.2009 66.3118 30.1606 66.2714 30.0801C66.2311 30.0197 66.11 30.06 65.9284 30.221L65.8073 29.6776L66.0495 29.5165C66.2311 29.6776 66.4127 29.7178 66.5942 29.6574C66.7758 29.597 66.9574 29.4964 67.1188 29.3555C67.2802 29.2146 67.4618 29.0536 67.6232 28.8925C67.7847 28.7315 67.9663 28.5906 68.1075 28.5302L68.3496 28.188L68.7531 28.3491ZM56.8489 3.65122C56.7682 3.67135 56.6875 3.71161 56.5665 3.77199C56.2033 3.95315 55.7997 4.15444 55.376 4.39598C54.9523 4.63753 54.569 4.8992 54.2058 5.20113C53.8426 5.50306 53.5601 5.84525 53.318 6.20756C53.0759 6.59 52.9548 7.0127 52.9548 7.47566C52.9548 7.55618 52.9548 7.67695 52.9548 7.83798C52.9548 7.99901 52.975 8.11978 53.0356 8.16004C52.9347 8.22042 52.8338 8.32107 52.7329 8.4821C52.632 8.64312 52.5311 8.82428 52.4101 9.02557C52.289 9.22686 52.1478 9.40802 51.9864 9.56904C51.825 9.73007 51.603 9.85084 51.3407 9.8911C51.5828 10.2333 51.7039 10.5755 51.7039 10.9177C51.7039 11.2598 51.6434 11.602 51.5021 11.9442C51.3609 12.2864 51.1995 12.6085 50.9775 12.9305C50.7556 13.2526 50.5336 13.5545 50.3319 13.8363L50.1705 13.7155C50.2915 14.2389 50.3117 14.722 50.231 15.1648C50.1301 15.6278 50.0091 16.0505 49.8275 16.4933C49.6661 16.916 49.4643 17.3387 49.2625 17.7614C49.0608 18.1841 48.8792 18.6068 48.7581 19.0899C48.9599 18.8483 49.1616 18.6068 49.3231 18.3451C49.4845 18.0835 49.6661 17.8218 49.8476 17.5601C49.9082 17.6205 49.9889 17.6809 50.1503 17.7815C50.2915 17.862 50.3924 17.9224 50.4529 17.9224C50.3722 17.8017 50.2915 17.6608 50.2108 17.4997C50.1301 17.3387 50.0494 17.1978 49.9687 17.077V16.9965C50.3117 16.4329 50.7354 15.9297 51.2197 15.507C51.7241 15.0843 52.1881 14.6415 52.632 14.1986C52.632 13.474 52.7733 12.8903 53.0759 12.4273C53.3786 11.9644 53.7216 11.5618 54.1049 11.1793C54.4883 10.7969 54.8313 10.4346 55.1339 10.0521C55.4366 9.66969 55.5778 9.20673 55.5778 8.64312C55.5778 8.52235 55.5576 8.34119 55.5374 8.11978C55.5173 7.89836 55.4769 7.71721 55.4164 7.59643L55.5374 7.55618C56.0419 7.39515 56.3647 7.17374 56.5261 6.87181C56.6875 6.56988 56.7682 6.24782 56.7884 5.90563C56.8086 5.56345 56.7884 5.181 56.748 4.77843C56.748 4.39598 56.7682 4.01354 56.8489 3.65122Z"
          fill="black" />
    <path d="M92.0369 26.6381C92.1378 27.0206 92.0975 27.3628 91.9159 27.6244C91.7343 27.8861 91.4922 28.1277 91.1895 28.3491C90.8869 28.5504 90.564 28.7516 90.2009 28.9127C89.8377 29.0737 89.5552 29.275 89.3131 29.4763C88.1227 29.7379 87.0533 29.9191 86.105 30.0399C85.1365 30.1606 84.0873 30.3015 82.9373 30.4827C82.5943 30.5431 82.2714 30.523 81.9688 30.4626C81.6661 30.4022 81.3635 30.3821 81.0407 30.4022C80.8591 30.4022 80.6775 30.4022 80.5363 30.3821C80.3748 30.3619 80.2134 30.3821 80.0722 30.4022C79.4669 30.4626 79.0634 30.6437 78.8818 31.006C78.7002 31.3482 78.5388 31.7508 78.4379 32.2138C78.3168 32.6767 78.1756 33.0994 78.0142 33.502C77.8528 33.9046 77.4896 34.1864 76.9246 34.3273C76.8641 34.448 76.8843 34.5688 76.9852 34.6695C77.0861 34.7701 77.1466 34.8708 77.2071 34.9513C76.7632 35.072 76.4606 35.3136 76.3193 35.6558C76.1781 35.998 76.057 36.32 75.936 36.6622C75.8351 37.0044 75.6737 37.2862 75.4921 37.5076C75.3105 37.729 74.9272 37.8095 74.3622 37.7491C73.5551 38.5946 72.5867 39.2991 71.477 39.8224C70.3672 40.3457 69.2373 40.6879 68.0469 40.849C67.8452 40.7483 67.6232 40.6074 67.4416 40.4665C67.26 40.3256 67.0381 40.1646 66.8565 40.0438C66.6749 39.923 66.453 39.8224 66.231 39.762C66.0091 39.7016 65.7468 39.6815 65.4643 39.7419C65.4441 39.1984 65.3231 38.6952 65.1213 38.2322C64.9195 37.7693 64.6774 37.3264 64.3546 36.9037C64.2941 36.4408 64.3546 35.998 64.5362 35.5954C64.6976 35.1928 64.8792 34.7902 65.0608 34.4078C65.2424 34.0253 65.4038 33.6228 65.5047 33.2202C65.6257 32.8176 65.6056 32.3547 65.4441 31.8515C65.7064 31.6904 65.888 31.5093 65.9687 31.308C66.0696 31.1067 66.1301 30.8853 66.1705 30.6639C66.2109 30.4424 66.2714 30.2412 66.3521 30.0399C66.4328 29.8386 66.6144 29.6776 66.8969 29.5568C66.6951 28.9328 66.7153 28.4698 66.9977 28.188C67.2802 27.9062 67.603 27.6244 68.0066 27.3829C68.4101 27.1414 68.7733 26.8998 69.1163 26.5979C69.4593 26.3161 69.5803 25.8934 69.5198 25.3096C69.6812 25.1486 69.8628 25.0278 70.0646 24.9272C70.2664 24.8266 70.4883 24.7259 70.6699 24.6454C70.8515 24.5649 71.0532 24.4642 71.2348 24.3636C71.4164 24.263 71.598 24.1221 71.7393 23.9409C71.5577 23.8201 71.477 23.6792 71.477 23.5585C71.4971 23.4377 71.5173 23.2968 71.5778 23.1559C71.6384 23.015 71.6989 22.8741 71.7594 22.7131C71.82 22.552 71.82 22.4111 71.7393 22.2501C72.4454 22.3507 73.0709 22.2501 73.6157 21.9683C74.1604 21.6664 74.6649 21.3644 75.1491 21.0625C75.6333 20.7606 76.1176 20.5392 76.622 20.3983C77.1264 20.2775 77.6914 20.4184 78.3572 20.8612C78.4177 21.0424 78.4984 21.304 78.6195 21.6664C78.7405 22.0086 78.8616 22.3709 78.9827 22.7332C79.1037 23.0955 79.2046 23.4377 79.3257 23.7799C79.4265 24.1221 79.4871 24.3636 79.5274 24.5246C79.5274 24.6454 79.5274 24.8668 79.5274 25.1486C79.5274 25.4304 79.5274 25.7323 79.5274 26.0544C79.5274 26.3765 79.5274 26.6784 79.5274 26.9602C79.5274 27.242 79.5274 27.4634 79.5274 27.6244C80.2941 28.0673 81.0407 28.3289 81.8074 28.4296C82.5741 28.5302 83.3206 28.3491 84.0873 27.9062C84.3698 28.1679 84.6523 28.2283 84.9146 28.1277C85.1769 28.0069 85.4392 27.8861 85.6813 27.7251C85.9234 27.5641 86.1857 27.4835 86.448 27.4634C86.7103 27.4433 86.9726 27.6647 87.2349 28.1075C87.5981 27.7653 87.9814 27.5641 88.385 27.4634C88.7885 27.3628 89.192 27.3225 89.6157 27.3024C90.0394 27.2822 90.443 27.2621 90.8667 27.2017C91.25 27.081 91.6536 26.9199 92.0369 26.6381ZM76.6422 30.4022C76.1176 30.4022 75.6535 30.2814 75.2903 30.0399C74.907 29.7983 74.5236 29.5165 74.1403 29.1945C73.7569 28.8925 73.3736 28.5906 72.9498 28.3289C72.5463 28.0471 72.0419 27.8861 71.477 27.8459C71.2348 28.1478 70.9725 28.4497 70.6497 28.7114C70.3269 28.9731 70.0646 29.275 69.8225 29.5769C69.5804 29.8788 69.4189 30.221 69.3382 30.5833C69.2373 30.9457 69.2979 31.3684 69.5198 31.8313C68.9145 32.1131 68.511 32.5157 68.289 33.0592C68.0873 33.5825 67.946 34.1662 67.8653 34.7902C67.8048 35.4142 67.7443 36.0382 67.6837 36.6622C67.6232 37.2862 67.4618 37.8498 67.1793 38.3329L68.0469 37.7491C68.1478 37.8095 68.2285 37.8699 68.3092 37.9907C68.3698 38.0913 68.3899 38.2121 68.3294 38.3329C68.5312 38.1316 68.7733 37.9706 69.0356 37.8498C69.2979 37.729 69.5602 37.6485 69.8426 37.568C70.1251 37.5076 70.3874 37.4472 70.6699 37.3868C70.9524 37.3264 71.2147 37.2661 71.477 37.1453C72.1428 37.5076 72.6068 37.5881 72.8893 37.3868C73.1718 37.1855 73.4139 36.8635 73.5955 36.4609C73.7771 36.0382 73.9789 35.6155 74.1806 35.1526C74.3824 34.6896 74.7254 34.4279 75.2096 34.3273L74.9272 34.0455C75.371 33.502 75.7746 32.9384 76.1378 32.3547C76.5009 31.7709 76.6623 31.1268 76.6422 30.4022ZM76.9045 27.3024C76.9045 26.9199 76.965 26.4972 77.1062 26.0544C77.2273 25.6116 77.3484 25.1889 77.4291 24.746C77.5098 24.3233 77.5098 23.9208 77.4089 23.5182C77.308 23.1358 77.0659 22.7734 76.6422 22.4715C76.3597 22.6325 76.1176 22.8338 75.936 23.1156C75.7544 23.3974 75.5728 23.6591 75.3912 23.9409C75.2096 24.2026 74.9877 24.4441 74.7456 24.6253C74.5034 24.8064 74.1806 24.8668 73.7771 24.7863C73.6358 25.0882 73.6358 25.3499 73.7771 25.5512C73.8981 25.7525 74.0596 25.9336 74.2411 26.0947C74.4227 26.2557 74.6043 26.4369 74.7657 26.618C74.9272 26.7992 74.9877 27.0407 74.9473 27.3225C75.0482 27.403 75.1895 27.4634 75.371 27.5439C75.5526 27.6043 75.7544 27.6446 75.936 27.6647C76.1176 27.6848 76.3193 27.6647 76.5009 27.6043C76.7027 27.5238 76.8238 27.4231 76.9045 27.3024Z"
          fill="black" />
    <path d="M112.214 34.2065C111.669 35.3739 111.144 36.2999 110.64 36.9641C110.135 37.6284 109.591 38.192 108.965 38.6549C108.34 39.1179 107.613 39.5204 106.746 39.923C105.878 40.3256 104.789 40.8087 103.477 41.3924C102.952 41.2716 102.448 41.2314 101.944 41.2918C101.439 41.3522 100.955 41.3924 100.511 41.4327C100.047 41.4528 99.6031 41.4125 99.1996 41.2918C98.7759 41.171 98.3925 40.8489 98.0495 40.3457H97.4644C97.4846 40.0035 97.4644 39.6613 97.3635 39.2789C97.2626 38.8965 97.0205 38.6952 96.5968 38.6348C96.8591 38.353 97.0205 38.0309 97.1012 37.6887C97.1819 37.3466 97.2424 36.9842 97.2828 36.6219C97.3232 36.2596 97.3837 35.9174 97.4644 35.5752C97.5451 35.233 97.7469 34.9512 98.0495 34.7298C97.7267 34.3071 97.6056 33.8844 97.6662 33.4617C97.7267 33.039 97.8679 32.6163 98.0899 32.1735C98.3118 31.7508 98.5539 31.3281 98.796 30.8853C99.0382 30.4626 99.1794 30.0197 99.1794 29.5769C98.9373 29.4159 98.7355 29.2146 98.5338 28.9328C98.332 28.651 98.0697 28.5906 97.7267 28.7114C97.0205 29.3756 96.3143 30.0197 95.6081 30.6236C94.902 31.2275 94.216 31.8514 93.5299 32.5157C92.8439 33.1799 92.2386 33.8442 91.6333 34.5487C91.0482 35.2532 90.5035 36.0382 89.999 36.9037C89.5552 36.9842 89.2121 37.1855 88.97 37.5277C88.7279 37.8699 88.5261 38.2121 88.3446 38.5945C88.163 38.977 87.9612 39.3192 87.7393 39.6614C87.5173 40.0035 87.2147 40.2249 86.8111 40.3256C86.6901 40.7483 86.5488 41.1509 86.3874 41.5937C86.2462 42.0164 86.105 42.4391 85.9637 42.8618C85.8023 42.7813 85.6005 42.7209 85.3584 42.6605C85.1163 42.6001 84.8742 42.5397 84.6321 42.4592C84.3899 42.3787 84.1882 42.2781 84.0066 42.1774C83.825 42.0567 83.7039 41.9158 83.6434 41.7346C83.6232 41.6742 83.603 41.5736 83.6232 41.4125C83.6434 41.2515 83.6434 41.1307 83.6434 41.0905C83.7039 40.3659 83.8855 39.6815 84.2084 39.0575C84.5312 38.4335 84.8944 37.8095 85.2575 37.1855C85.6207 36.5817 85.9637 35.9577 86.2865 35.3337C86.6094 34.7097 86.7708 34.0253 86.7909 33.2806C87.1945 33.2806 87.4366 33.1598 87.5577 32.9384C87.6787 32.717 87.7594 32.4553 87.8401 32.1936C87.9007 31.9319 87.9814 31.7105 88.1024 31.4891C88.2033 31.2878 88.4454 31.2073 88.8086 31.2476C88.5665 30.9457 88.4656 30.6035 88.506 30.221C88.5463 29.8386 88.6472 29.4763 88.8086 29.0938C88.97 28.7114 89.1718 28.3491 89.3937 28.0069C89.6359 27.6647 89.8174 27.3426 89.9789 27.0608C89.9587 26.6985 89.9789 26.3362 90.0797 25.9739C90.1806 25.6116 90.342 25.2895 90.564 25.0077C90.8061 24.7259 91.0079 24.4441 91.1895 24.2026C91.371 23.9409 91.5526 23.6792 91.7342 23.3773C91.8351 23.2565 91.9158 23.1156 91.9965 22.9546C92.057 22.7935 92.1378 22.6526 92.2185 22.5319C92.4606 22.1897 92.622 21.8475 92.6825 21.4651C92.7632 21.0826 92.8439 20.7203 92.9448 20.3379C93.0457 19.9554 93.1668 19.6334 93.3483 19.3314C93.5098 19.0295 93.8326 18.788 94.2765 18.6068C94.2765 18.325 94.3168 18.0633 94.4177 17.8016C94.5186 17.5601 94.5993 17.2984 94.7204 17.0368C94.8212 16.7751 94.9221 16.5335 95.023 16.2719C95.1239 16.0303 95.1642 15.7687 95.1642 15.4667C95.245 15.346 95.366 15.2051 95.5274 15.0843C95.6888 14.9635 95.8301 14.8226 95.9511 14.7018C96.0722 14.5811 96.1933 14.4402 96.274 14.2993C96.3547 14.1584 96.3748 13.9772 96.3143 13.7759C96.3345 13.4337 96.3345 13.0915 96.2941 12.7292C96.2538 12.3669 96.3547 12.065 96.5968 11.8033C96.5363 11.4611 96.5968 11.1995 96.738 10.978C96.8793 10.7767 97.0609 10.5956 97.2626 10.4346C97.4644 10.2735 97.7065 10.1326 97.9486 9.99173C98.1908 9.85083 98.4127 9.6898 98.5943 9.50865C98.453 9.32749 98.4329 9.1262 98.5136 8.88466C98.5943 8.64312 98.6952 8.4217 98.8566 8.20028C98.9978 7.97887 99.1592 7.75746 99.3408 7.55617C99.5224 7.35488 99.6636 7.17372 99.7443 7.0127C99.9058 6.71077 100.047 6.38871 100.168 6.08678C100.289 5.78485 100.43 5.48292 100.592 5.22125C100.753 4.93945 100.935 4.6979 101.157 4.45636C101.379 4.21481 101.681 4.03366 102.044 3.87263C101.944 3.34928 101.964 2.94671 102.145 2.66491C102.307 2.38311 102.549 2.14156 102.852 1.92015C103.154 1.71886 103.477 1.51758 103.82 1.31629C104.163 1.115 104.446 0.853332 104.647 0.491016C104.93 0.410502 105.253 0.329985 105.596 0.229342C105.939 0.148827 106.282 0.0683156 106.625 0.0280583C106.968 -0.012199 107.29 -0.0122024 107.613 0.0481835C107.936 0.108569 108.219 0.249472 108.481 0.470887C108.582 0.57153 108.642 0.631917 108.683 0.672174C108.703 0.692303 108.723 0.712429 108.723 0.732558C108.723 0.752686 108.723 0.772817 108.743 0.813074C108.763 0.853331 108.824 0.913719 108.925 1.03449C109.026 1.13513 109.126 1.23578 109.248 1.31629C109.348 1.41693 109.449 1.51758 109.57 1.63835C109.591 1.81951 109.591 2.02079 109.57 2.24221C109.55 2.46362 109.53 2.68504 109.53 2.88633C109.53 3.08761 109.57 3.2889 109.631 3.47005C109.691 3.65121 109.853 3.77198 110.115 3.8525C109.913 4.59726 109.812 5.4024 109.833 6.26793C109.853 7.11334 109.873 7.97887 109.873 8.8444C109.873 9.70993 109.812 10.5553 109.671 11.3404C109.53 12.1455 109.207 12.85 108.642 13.474L108.36 15.4466C108.017 15.4667 107.775 15.5875 107.654 15.7687C107.512 15.9699 107.432 16.1914 107.371 16.453C107.311 16.7147 107.27 16.9764 107.23 17.2582C107.19 17.54 107.089 17.7815 106.927 17.9627C106.725 18.2243 106.504 18.5263 106.302 18.8483C106.1 19.1905 105.878 19.4925 105.636 19.7743C105.394 20.0561 105.132 20.2976 104.829 20.4989C104.526 20.7002 104.183 20.7807 103.78 20.7807C103.719 20.9417 103.618 21.1229 103.457 21.3242C103.295 21.5254 103.114 21.7267 102.932 21.928C102.73 22.1293 102.529 22.2903 102.327 22.4312C102.125 22.5721 101.923 22.6728 101.782 22.713C101.58 22.7935 101.379 22.8539 101.217 22.8942C101.056 22.9345 100.854 23.015 100.652 23.1357C100.41 23.2565 100.188 23.4377 99.9461 23.639C99.704 23.8402 99.4619 24.0214 99.1996 24.1824C98.9373 24.3435 98.6548 24.4441 98.3723 24.5045C98.0899 24.5649 97.7872 24.5447 97.5047 24.4038C97.1617 24.8265 96.7784 25.0681 96.3345 25.1687C95.8906 25.2694 95.4871 25.3298 95.0835 25.37C94.68 25.4103 94.2967 25.4908 93.9335 25.6518C93.5703 25.8128 93.308 26.1148 93.1264 26.5979C93.0659 26.6582 93.0255 26.7589 92.9852 26.9199C92.9448 27.0809 92.9246 27.2017 92.9246 27.242C92.9246 27.5238 92.9045 27.866 92.8843 28.2887C92.8641 28.7114 92.965 29.0133 93.2071 29.2146C94.1554 28.7718 95.0432 28.2484 95.9108 27.6446C96.7582 27.0407 97.6863 26.5174 98.6548 26.1148L98.9373 26.4167C99.018 25.8531 99.2601 25.5512 99.6838 25.5512C100.108 25.531 100.531 25.5512 100.975 25.5713H101.258C101.318 25.5713 101.358 25.5713 101.399 25.5512C101.439 25.531 101.48 25.531 101.54 25.531C102.044 25.531 102.367 25.7323 102.529 26.1148C102.69 26.4972 102.831 26.8797 102.952 27.242C102.67 27.5439 102.428 27.9264 102.266 28.3491C102.105 28.7718 101.944 29.2146 101.802 29.6977C101.661 30.1606 101.5 30.6236 101.338 31.0664C101.177 31.5294 100.935 31.9319 100.652 32.3345C100.894 32.4553 100.995 32.6163 100.975 32.7572C100.955 32.9183 100.894 33.0592 100.834 33.2202C100.773 33.3812 100.753 33.5221 100.773 33.663C100.794 33.8039 100.975 33.9247 101.278 33.9851C101.015 34.1662 100.834 34.3876 100.753 34.6292C100.652 34.8707 100.592 35.1324 100.511 35.4142C100.451 35.696 100.37 35.9376 100.289 36.1992C100.208 36.4408 100.047 36.6622 99.8251 36.8433C99.9259 37.0849 100.007 37.3063 100.087 37.5277C100.148 37.7491 100.168 37.9907 100.108 38.2926C100.471 38.7556 100.854 39.0172 101.237 39.0776C101.621 39.138 101.984 39.0977 102.367 38.9971C102.73 38.8965 103.114 38.7958 103.517 38.6952C103.921 38.5945 104.324 38.6147 104.748 38.7757C105.475 38.2926 105.999 37.9907 106.282 37.89C106.564 37.7894 106.806 37.7089 106.968 37.6485C107.129 37.5881 107.351 37.4875 107.573 37.3063C107.815 37.1251 108.259 36.7226 108.905 36.0986C109.57 35.9174 110.155 35.6155 110.66 35.2129C111.164 34.8103 111.608 34.4883 112.214 34.2065ZM106.342 2.48375C106.362 2.78568 106.302 3.02723 106.12 3.20838C105.959 3.36941 105.757 3.53044 105.555 3.67134C105.353 3.81224 105.131 3.95314 104.95 4.09404C104.748 4.23494 104.647 4.45636 104.607 4.73816C104.264 4.89919 104.042 5.10047 103.941 5.36215C103.84 5.62382 103.759 5.88549 103.679 6.16729C103.618 6.44909 103.517 6.71076 103.376 6.97244C103.235 7.23411 102.973 7.43539 102.589 7.59642L102.872 7.8581C102.004 8.64312 101.318 9.5489 100.794 10.6157C100.289 11.6825 99.8251 12.7292 99.4417 13.796C99.0785 14.1785 98.8162 14.6213 98.6548 15.1044C98.4934 15.5875 98.3522 16.0706 98.2109 16.5335C98.0697 17.0166 97.8881 17.4595 97.6662 17.9023C97.4442 18.325 97.081 18.6672 96.5766 18.8886C96.8389 19.2308 96.9398 19.5327 96.8793 19.8145C96.8187 20.0963 96.6775 20.3781 96.4556 20.6197C96.2538 20.8813 96.0318 21.143 95.8099 21.4047C95.588 21.6663 95.4669 21.9481 95.4266 22.2501C95.931 22.3507 96.4152 22.3306 96.8994 22.2098C97.3837 22.089 97.8679 21.8878 98.332 21.6462C98.796 21.4047 99.2601 21.1229 99.6636 20.8209C100.087 20.519 100.491 20.2372 100.894 19.9957L101.177 20.2775C102.367 19.6334 103.336 18.8483 104.123 17.9224C104.889 16.9965 105.636 16.0102 106.342 14.9233C106.1 14.7421 105.999 14.5408 106.019 14.3395C106.08 14.2187 106.14 14.0577 106.221 13.8766C106.302 13.6954 106.362 13.5344 106.423 13.4136C106.685 12.6286 106.887 11.904 107.008 11.2397C107.351 9.85083 107.593 8.44183 107.734 7.03282C107.876 5.62382 107.976 4.21481 108.037 2.78568L106.342 2.48375Z"
          fill="black" />
    <path d="M139.795 26.94C139.553 27.1816 139.371 27.3627 139.27 27.4835C139.169 27.6043 139.048 27.725 138.948 27.8458C138.847 27.9666 138.746 28.0873 138.625 28.2081C138.504 28.3289 138.322 28.5302 138.1 28.7919C137.898 28.9931 137.697 29.2146 137.515 29.4561C137.333 29.6976 137.111 29.8989 136.89 30.0801C136.567 29.9996 136.325 30.0398 136.163 30.2009C136.002 30.3619 135.84 30.5229 135.699 30.7242C135.558 30.9255 135.417 31.1066 135.296 31.2677C135.175 31.4287 135.033 31.5092 134.852 31.4891C134.226 31.8313 133.601 32.1131 132.955 32.3546C132.33 32.5962 131.724 32.9585 131.139 33.4214L130.816 33.1195L126.721 35.0519C126.579 35.1122 126.458 35.1726 126.317 35.2934C126.176 35.394 126.055 35.4947 125.913 35.5551C125.328 35.857 124.743 36.1388 124.118 36.4005C123.492 36.642 122.887 36.8634 122.282 37.0848L121.777 37.2459C121.979 37.7692 121.979 38.1315 121.777 38.3328C121.575 38.5341 121.273 38.6951 120.869 38.7757C120.466 38.8562 120.042 38.9166 119.578 38.9568C119.114 38.9971 118.731 39.0776 118.468 39.2386C118.145 39.1782 117.823 39.1581 117.5 39.1782C117.177 39.1984 116.834 39.2185 116.491 39.2789C116.128 39.3393 115.785 39.3594 115.462 39.3594C115.139 39.3594 114.796 39.3191 114.433 39.2386H114.352C113.908 39.4399 113.525 39.5003 113.182 39.3795C112.859 39.2587 112.557 39.0776 112.294 38.7958C112.032 38.514 111.79 38.1919 111.568 37.8296C111.346 37.4472 111.124 37.105 110.882 36.803C110.72 36.6018 110.519 36.2998 110.297 35.9174C110.075 35.5349 109.853 35.1122 109.691 34.6694C109.53 34.2266 109.409 33.7838 109.369 33.3208C109.328 32.878 109.429 32.4754 109.671 32.1332C109.913 31.791 110.095 31.4287 110.236 31.0463C110.377 30.6638 110.458 30.2009 110.458 29.6775C110.458 29.4964 110.458 29.3353 110.438 29.1743C110.418 29.0133 110.418 28.8522 110.418 28.6711C110.559 28.6711 110.7 28.6711 110.842 28.6912C111.003 28.7113 111.144 28.7113 111.285 28.6912C111.427 28.6711 111.548 28.6308 111.649 28.5302C111.749 28.4497 111.79 28.2886 111.79 28.0471C111.79 27.9263 111.749 27.8055 111.649 27.7452C111.548 27.6646 111.487 27.5841 111.467 27.5036C111.628 27.2621 111.77 27.0809 111.911 26.94C112.052 26.7991 112.173 26.6582 112.294 26.5173C112.395 26.3764 112.476 26.2154 112.536 26.0141C112.597 25.8128 112.577 25.5511 112.496 25.209C112.819 24.6655 113.182 24.1824 113.626 23.7597C114.05 23.337 114.514 22.9344 114.978 22.552C115.442 22.1695 115.946 21.8072 116.43 21.4449C116.935 21.0826 117.399 20.7001 117.843 20.2774C118.347 20.4787 118.751 20.4787 119.053 20.2774C119.356 20.0762 119.618 19.8346 119.86 19.5931C120.103 19.3515 120.325 19.1502 120.567 18.9892C120.809 18.8282 121.111 18.9087 121.515 19.1905L121.596 19.271C122.302 18.5665 123.028 18.2646 123.734 18.3451C124.461 18.4256 125.066 18.647 125.591 19.0496C126.115 19.4522 126.438 19.8749 126.599 20.3982C126.761 20.9014 126.62 21.2436 126.176 21.4248C126.458 21.7066 126.599 22.0488 126.599 22.4312C126.599 22.8136 126.499 23.1558 126.277 23.4376C126.035 23.7396 125.833 24.0616 125.671 24.3837C125.51 24.7057 125.328 25.0479 125.147 25.4102C124.884 26.0141 124.602 26.5777 124.279 27.101C123.956 27.6244 123.512 28.0874 122.948 28.4497C122.483 28.3289 122.161 28.3692 121.979 28.6107C121.818 28.8522 121.676 29.0938 121.596 29.3756C121.515 29.6373 121.434 29.8587 121.313 30.0197C121.212 30.1807 120.99 30.1203 120.647 29.8587L120.567 29.7782L120.486 29.8587C120.284 30.06 120.103 30.3015 120.002 30.5632C119.881 30.8248 119.719 31.0261 119.517 31.1469C119.275 31.0664 119.033 31.006 118.771 30.9456C118.509 30.8852 118.267 30.845 118.024 30.7846C118.024 31.3281 117.924 31.7508 117.702 32.0728C117.5 32.3748 117.217 32.6364 116.895 32.8377C116.572 33.039 116.188 33.1799 115.765 33.3007C115.341 33.4214 114.937 33.5623 114.514 33.7234C114.11 33.8844 113.727 34.1058 113.364 34.3474C113 34.5889 112.718 34.9311 112.516 35.3739C112.778 35.6557 113.101 35.8167 113.505 35.857C113.908 35.8973 114.312 35.8973 114.736 35.857C115.159 35.8167 115.563 35.7966 115.987 35.7966C116.39 35.7966 116.753 35.8973 117.076 36.0985L117.116 36.1388L117.157 36.0985C117.782 36.018 118.408 35.8771 118.993 35.6557C119.578 35.4343 120.163 35.1928 120.728 34.9512C121.293 34.7097 121.878 34.4681 122.463 34.2467C123.048 34.0253 123.674 33.8643 124.299 33.7636C124.42 33.9649 124.602 34.0857 124.824 34.1058C125.046 34.1259 125.268 34.1259 125.47 34.0656L125.51 33.985C125.57 33.8039 125.611 33.6429 125.671 33.502C125.732 33.3611 125.792 33.2 125.913 33.0189C126.095 32.7371 126.317 32.5157 126.579 32.3546C126.842 32.1936 127.124 32.0929 127.427 32.0124C127.729 31.9319 128.052 31.8917 128.395 31.8514C128.738 31.8313 129.081 31.791 129.424 31.7306H129.505L129.545 31.6099C129.646 31.3079 129.787 31.0865 129.969 30.9657C130.13 30.845 130.332 30.7645 130.514 30.7242C130.695 30.6839 130.917 30.6437 131.139 30.6034C131.361 30.5833 131.583 30.5028 131.785 30.3619C132.249 30.5229 132.652 30.4625 132.975 30.2009C133.298 29.9392 133.601 29.6775 133.883 29.3957L134.206 29.7782L134.327 29.6171C134.731 29.2548 135.013 28.9931 135.215 28.7919C135.417 28.6107 135.598 28.4497 135.78 28.3088C135.961 28.1679 136.183 28.027 136.425 27.8861C136.668 27.7452 137.031 27.5237 137.475 27.2419C137.838 27.0004 138.201 26.779 138.564 26.5374C138.927 26.2959 139.27 26.0544 139.613 25.7524C139.734 25.8128 139.815 25.8933 139.815 26.0342C139.815 26.1751 139.815 26.316 139.815 26.4368C139.795 26.4972 139.775 26.5576 139.755 26.6783C139.734 26.8192 139.755 26.8998 139.795 26.94ZM123.492 22.089C123.472 22.0689 123.452 22.0488 123.432 22.0488C123.412 22.0488 123.391 22.0286 123.371 22.0085C122.826 21.7267 122.362 21.5858 121.999 21.6059C121.636 21.6261 121.293 21.7267 120.99 21.9079C120.688 22.1091 120.405 22.3507 120.163 22.6526C119.921 22.9545 119.659 23.2162 119.376 23.4578C119.094 23.6993 118.771 23.9006 118.408 24.0214C118.045 24.1421 117.601 24.1421 117.076 23.9811C116.995 24.4038 116.915 24.8064 116.854 25.209C116.794 25.6115 116.733 26.0141 116.713 26.4368C116.269 26.5978 115.926 26.8192 115.664 27.101C115.422 27.3828 115.2 27.7049 115.038 28.027C114.877 28.3691 114.715 28.7113 114.574 29.0938C114.433 29.4762 114.231 29.8184 114.009 30.1606L114.171 30.3619C114.272 30.3015 114.393 30.3418 114.534 30.4827C114.655 30.6034 114.756 30.7041 114.816 30.7443C115.099 30.3216 115.482 29.9794 115.987 29.6976C116.471 29.4158 116.975 29.1542 117.48 28.8925C117.984 28.6509 118.488 28.3893 118.953 28.0874C119.417 27.7854 119.78 27.4231 120.022 26.9601C120.869 26.7186 121.495 26.2556 121.918 25.5713C122.342 24.8668 122.685 24.1421 122.988 23.3974C123.048 23.2363 123.129 23.0149 123.291 22.713C123.371 22.4312 123.472 22.2299 123.492 22.089Z"
          fill="black" />
    <path d="M178.07 32.0729C177.828 32.2741 177.505 32.5358 177.101 32.878C176.698 33.2001 176.415 33.502 176.294 33.7435C176.133 34.0052 176.012 34.2266 175.911 34.448C175.81 34.6493 175.709 34.8305 175.588 34.9714C175.467 35.1123 175.306 35.233 175.124 35.2934C174.943 35.3538 174.66 35.4142 174.317 35.4142C174.317 35.4947 174.176 35.6557 173.893 35.8973C173.611 36.1388 173.328 36.4005 173.006 36.6823C172.683 36.9641 172.4 37.2057 172.138 37.4673C171.876 37.7089 171.735 37.8699 171.735 37.9504L171.371 37.7491C171.311 37.729 171.17 37.729 170.927 37.7693C170.685 37.8095 170.383 37.89 170.06 38.0108C169.737 38.1316 169.414 38.2926 169.091 38.4939C168.769 38.6952 168.526 38.977 168.345 39.299L168.183 39.2588C167.78 39.1581 167.397 39.138 166.973 39.1984C166.569 39.2588 166.166 39.299 165.762 39.299C164.915 39.3594 164.31 39.2185 163.906 38.9367C163.502 38.6348 163.099 38.0712 162.655 37.2459C162.554 37.0648 162.453 36.8635 162.373 36.6622C162.292 36.4609 162.231 36.2395 162.171 36.0382V35.8772C162.534 35.6759 162.736 35.3941 162.756 35.0519C162.776 34.7097 162.776 34.3273 162.716 33.9448C162.655 33.5624 162.635 33.1799 162.615 32.8176C162.594 32.4553 162.736 32.1534 163.038 31.932C162.877 31.5092 162.897 31.1268 163.099 30.7444C163.301 30.3619 163.482 30.0197 163.664 29.6775C163.845 29.3354 163.946 29.0133 163.946 28.7114C163.946 28.4094 163.664 28.0874 163.079 27.7452C162.473 27.9867 161.909 28.2685 161.364 28.6107C160.819 28.9529 160.294 29.3152 159.75 29.6977C159.205 30.0801 158.68 30.4424 158.135 30.8047C157.591 31.1671 157.026 31.469 156.42 31.6904C155.876 32.2943 155.291 32.7975 154.685 33.2202C154.08 33.6429 153.495 34.0857 152.93 34.5688C152.365 35.0318 151.861 35.5551 151.396 36.1388C150.932 36.7226 150.589 37.4472 150.347 38.2926C150.206 38.1316 150.085 38.0309 149.944 37.9907C149.803 37.9303 149.641 37.89 149.439 37.8296C149.157 37.7491 148.935 37.6686 148.814 37.568C148.673 37.4875 148.511 37.3466 148.309 37.1654L148.35 37.0849C148.592 36.4206 148.854 35.7161 149.177 35.0318C149.5 34.3273 149.641 33.6429 149.641 32.9384C149.641 32.6767 149.621 32.4352 149.56 32.2138C149.5 31.9923 149.48 31.7508 149.48 31.4891C149.48 31.0262 149.56 30.6035 149.722 30.2009C149.883 29.7983 150.065 29.4561 150.246 29.1139C150.448 28.7718 150.63 28.4497 150.791 28.1276C150.953 27.8056 151.053 27.4634 151.053 27.1011C151.053 26.8193 150.993 26.5375 150.852 26.2557C150.71 25.9739 150.549 25.7323 150.347 25.5109C149.944 25.4908 149.581 25.531 149.238 25.6518C148.895 25.7726 148.552 25.8934 148.209 26.0544C147.866 26.2154 147.502 26.3563 147.139 26.457C146.776 26.5777 146.373 26.618 145.949 26.5979C145.404 27.1413 144.839 27.6848 144.254 28.2081C143.669 28.7315 143.104 29.2548 142.519 29.7782C141.308 30.845 140.138 31.932 138.988 33.0793C137.838 34.2266 136.93 35.5148 136.244 36.9641C136.103 37.2459 136.002 37.5478 135.901 37.8296C135.8 38.1316 135.699 38.4134 135.558 38.6952C135.558 38.7556 135.538 38.7958 135.477 38.8562H135.275C134.993 38.8562 134.791 38.9367 134.71 39.0977C134.61 39.2588 134.549 39.4198 134.509 39.6211C134.468 39.8224 134.428 40.0035 134.367 40.1847C134.307 40.3658 134.206 40.4866 134.004 40.5269C133.802 40.5873 133.581 40.547 133.399 40.4061C133.217 40.2652 133.036 40.1444 132.915 40.0237L132.874 39.9834C132.612 39.5607 132.471 39.138 132.451 38.6952C132.43 38.2523 132.471 37.8296 132.592 37.3868C132.713 36.9641 132.874 36.5414 133.096 36.1187C133.318 35.696 133.54 35.3136 133.742 34.9512C134.065 34.4078 134.347 33.8442 134.63 33.2604C134.912 32.6767 135.053 32.0728 135.053 31.4086C135.053 31.1268 135.013 30.8651 134.953 30.6437C134.892 30.4223 134.831 30.2009 134.771 29.9593L135.639 29.3756C135.497 29.1945 135.437 29.0334 135.417 28.8925C135.396 28.7516 135.396 28.6107 135.417 28.4899C135.437 28.3692 135.437 28.2283 135.457 28.1276C135.477 28.0069 135.457 27.8861 135.396 27.7653V27.6445L135.719 27.3024C135.659 26.457 135.639 25.6518 135.639 24.8869C135.639 24.1422 135.477 23.3571 135.174 22.5117C135.538 22.1696 135.901 22.089 136.244 22.2501C136.587 22.4111 136.93 22.6124 137.273 22.8137V22.8539L137.313 22.8942C137.515 23.1961 137.717 23.5786 137.858 24.0214C138.019 24.4642 138.14 24.9272 138.241 25.3901C138.342 25.8732 138.403 26.3362 138.463 26.7991C138.524 27.2621 138.544 27.6848 138.544 28.0471C138.544 28.1478 138.544 28.2484 138.524 28.3289C138.504 28.4094 138.504 28.5101 138.504 28.6107L138.261 28.8523C138.383 28.973 138.544 29.1139 138.685 29.2347C138.826 29.3555 139.008 29.4159 139.19 29.3957C139.351 28.9328 139.593 28.6308 139.936 28.4899C140.279 28.349 140.622 28.2283 140.985 28.1679C141.349 28.1075 141.651 27.9867 141.934 27.8458C142.216 27.7049 142.357 27.403 142.357 26.94C142.357 26.8394 142.337 26.7589 142.317 26.6985L142.398 26.618C143.124 25.8934 143.891 25.2492 144.657 24.6655C145.424 24.0818 146.251 23.6591 147.099 23.3571C147.946 23.0753 148.854 22.9546 149.782 23.015C150.71 23.0753 151.719 23.3571 152.789 23.8604L152.869 23.9006L153.293 25.4908L153.011 25.7525C153.273 26.1148 153.374 26.5375 153.313 27.0206C153.253 27.5036 153.132 27.9666 152.97 28.4296C152.809 28.8925 152.668 29.3354 152.547 29.7379C152.405 30.1405 152.425 30.4223 152.587 30.6035C152.708 30.7846 152.97 30.8651 153.313 30.845C153.676 30.8249 153.959 30.7846 154.161 30.7645C154.362 30.4827 154.665 30.2411 155.048 30.0197C155.432 29.8184 155.815 29.6172 156.199 29.436C156.582 29.2548 156.905 29.0737 157.207 28.8724C157.49 28.6711 157.651 28.4698 157.671 28.2283C158.095 28.3088 158.438 28.2887 158.7 28.1679C158.963 28.0471 159.164 27.8861 159.326 27.6445C159.487 27.403 159.629 27.1615 159.75 26.8797C159.871 26.618 160.032 26.3563 160.193 26.0946C160.355 25.8531 160.577 25.6518 160.839 25.531C161.101 25.4103 161.465 25.37 161.908 25.4103C162.514 24.8064 163.22 24.3837 164.047 24.1019C164.874 23.8402 165.702 23.6792 166.549 23.6591C167.154 23.6389 167.578 23.8 167.8 24.1824C168.042 24.5649 168.163 25.0077 168.163 25.531C168.163 26.1953 168.002 26.8595 167.699 27.4634C167.397 28.0672 167.033 28.7114 166.63 29.3555C166.226 29.9996 165.883 30.684 165.56 31.3683C165.238 32.0728 165.096 32.8377 165.096 33.7033C165.096 33.7838 165.096 33.9247 165.096 34.1058C165.096 34.3071 165.117 34.4883 165.137 34.6896C165.157 34.8909 165.197 35.072 165.238 35.233C165.278 35.3941 165.339 35.5148 165.419 35.5551C165.52 35.6155 165.621 35.6558 165.702 35.6759L165.5 35.8369C166.105 35.9174 166.65 36.0181 167.114 36.159C167.578 36.2999 168.103 36.2596 168.647 36.0181C168.809 35.9577 168.97 35.9375 169.132 35.8973C169.293 35.8772 169.475 35.8369 169.616 35.7765C169.858 35.7564 169.999 35.6558 170.04 35.4947C170.1 35.3337 170.181 35.1525 170.342 34.9915C170.484 34.8305 170.726 34.6694 171.049 34.5285C171.371 34.3876 171.916 34.3071 172.683 34.3071V33.6831C173.207 33.5221 173.651 33.3208 174.014 33.0793C174.378 32.8377 174.741 32.6163 175.104 32.3949C175.467 32.1735 175.851 32.0326 176.294 31.932C176.738 31.8313 177.404 31.9722 178.07 32.0729Z"
          fill="black" />
    <path d="M194.11 31.9924C194.131 32.556 194.09 32.9585 193.969 33.2001C193.848 33.4416 193.707 33.6228 193.545 33.7637C193.384 33.9046 193.243 34.0656 193.122 34.2266C193.001 34.3877 192.94 34.6896 192.94 35.0922C192.335 35.7363 191.851 36.2194 191.487 36.5012C191.124 36.8031 190.761 37.0447 190.418 37.2459C190.075 37.4472 189.692 37.6485 189.268 37.8901C188.844 38.1316 188.259 38.4939 187.533 38.977L187.25 39.0173C187.17 39.3997 187.028 39.6413 186.827 39.7016C186.625 39.762 186.403 39.8023 186.161 39.8023C185.919 39.8023 185.677 39.8224 185.434 39.8828C185.192 39.9432 185.011 40.1646 184.849 40.547C184.405 40.6678 184.022 40.7282 183.699 40.7081C183.376 40.6879 182.973 40.6678 182.468 40.6678C182.307 40.6678 182.105 40.6477 181.863 40.6276C181.621 40.6074 181.419 40.6074 181.258 40.6678C181.157 40.6879 181.036 40.7685 180.915 40.8892C180.794 41.01 180.673 41.1106 180.532 41.1912C180.39 41.2717 180.269 41.2918 180.128 41.2918C179.987 41.2717 179.886 41.171 179.765 40.9697C179.442 41.0503 179.16 41.0503 178.897 40.9697C178.635 40.8892 178.393 40.7685 178.151 40.5873C177.909 40.4061 177.707 40.1847 177.505 39.9432C177.303 39.7016 177.122 39.4802 176.94 39.2588C176.799 39.0978 176.658 38.9569 176.516 38.8361C176.355 38.7153 176.214 38.5744 176.093 38.4537C175.81 38.1719 175.588 37.8095 175.467 37.3667C175.346 36.9239 175.265 36.4811 175.225 35.998C175.205 35.535 175.205 35.072 175.265 34.6091C175.326 34.1461 175.407 33.7234 175.508 33.3611C175.75 33.1196 175.911 32.8579 175.992 32.556C176.093 32.254 176.153 31.9521 176.234 31.6502C176.294 31.3483 176.375 31.0262 176.476 30.7444C176.577 30.4425 176.738 30.1808 176.96 29.9392C176.96 29.5971 177.021 29.2951 177.142 29.0133C177.263 28.7315 177.424 28.4497 177.606 28.2082C177.808 27.9465 178.03 27.705 178.272 27.4835C178.514 27.2621 178.756 27.0608 178.958 26.8394C179.16 26.8394 179.381 26.8394 179.583 26.8193C179.785 26.7992 179.987 26.8193 180.168 26.8596C180.35 26.8998 180.511 26.9803 180.632 27.1011C180.753 27.2219 180.875 27.403 180.955 27.6647C181.137 28.3692 181.096 28.9328 180.814 29.3555C180.532 29.7782 180.229 30.1808 179.886 30.5834C179.543 30.9658 179.26 31.3684 179.059 31.7911C178.857 32.2138 178.897 32.7371 179.22 33.3812C178.938 33.3812 178.736 33.4618 178.655 33.6228C178.554 33.7838 178.494 33.9448 178.453 34.1461C178.413 34.3474 178.352 34.5286 178.272 34.7097C178.191 34.8909 178.03 35.0117 177.808 35.0922C177.969 35.2532 178.05 35.5149 178.07 35.8973C178.09 36.2798 178.131 36.6622 178.191 37.0044C178.252 37.3466 178.373 37.6284 178.554 37.8297C178.716 38.031 179.038 38.0511 179.523 37.8699C179.866 38.1517 180.269 38.2725 180.774 38.2121C181.258 38.1517 181.722 38.1517 182.125 38.1719C182.489 37.9303 182.811 37.8095 183.074 37.8095C183.336 37.7894 183.578 37.8297 183.82 37.8901C184.062 37.9504 184.305 38.0108 184.567 38.0712C184.829 38.1316 185.152 38.0913 185.515 37.9504C185.616 37.5076 185.798 37.2459 186.06 37.1654C186.322 37.0849 186.585 37.0447 186.847 37.0245C187.109 37.0044 187.351 36.9641 187.573 36.8836C187.795 36.8031 187.957 36.5414 188.017 36.0986C188.219 35.8369 188.481 35.696 188.764 35.6558C189.046 35.6155 189.349 35.5753 189.651 35.5149C189.954 35.4545 190.236 35.3539 190.479 35.1928C190.721 35.0318 190.902 34.6896 191.003 34.2065C191.447 33.8643 191.77 33.6228 191.972 33.4416C192.173 33.2605 192.335 33.1397 192.456 33.0391C192.577 32.9384 192.759 32.8176 192.96 32.6969C193.263 32.5157 193.606 32.2943 194.11 31.9924ZM186.463 14.6012C185.999 14.7824 185.737 15.0642 185.677 15.4265C185.616 15.7888 185.596 16.1713 185.616 16.5537C185.636 16.9361 185.616 17.2985 185.556 17.6406C185.495 17.9828 185.233 18.2043 184.769 18.3049C184.587 18.003 184.345 17.701 184.083 17.4394C183.8 17.1576 183.538 16.8959 183.276 16.6141C183.013 16.3524 182.811 16.0505 182.65 15.7486C182.489 15.4466 182.448 15.0642 182.489 14.6214L184.466 12.3669C184.789 12.4676 185.031 12.6085 185.213 12.7494C185.394 12.9104 185.556 13.0916 185.677 13.2929C185.798 13.4941 185.939 13.7156 186.06 13.937C186.161 14.1383 186.302 14.3798 186.463 14.6012Z"
          fill="black" />
    <path d="M218.625 34.75C218.262 35.374 217.979 35.8772 217.778 36.2395C217.576 36.6018 217.374 36.9239 217.192 37.1654C216.991 37.407 216.769 37.6284 216.527 37.8297C216.284 38.031 215.921 38.2725 215.477 38.5543C215.195 38.816 214.892 39.0374 214.61 39.2186C214.368 39.3997 214.146 39.5608 213.924 39.6815C213.702 39.8023 213.52 39.8828 213.399 39.8828C213.339 39.8828 213.298 39.8828 213.238 39.8627C213.177 39.8426 213.137 39.8426 213.076 39.8426C212.915 39.8426 212.774 39.8426 212.633 39.8627C212.491 39.8828 212.37 39.7822 212.249 39.5608C212.168 39.6413 212.108 39.7218 212.047 39.8426C211.987 39.9432 211.946 40.0438 211.886 40.1244C211.825 40.2049 211.765 40.2854 211.664 40.3458C211.563 40.4062 211.442 40.4062 211.281 40.3458L211.079 40.1042L210.494 40.6074C209.767 40.2451 209.061 39.9432 208.395 39.7017C207.73 39.4601 207.124 39.1582 206.6 38.8361C206.075 38.4939 205.631 38.0712 205.268 37.5278C204.905 37.0044 204.643 36.2597 204.481 35.3337C204.34 35.1727 204.199 35.0318 204.057 34.9312C203.896 34.8104 203.714 34.7903 203.513 34.8305C203.25 35.2734 202.928 35.6357 202.564 35.9577C202.201 36.2597 201.838 36.6018 201.455 36.9642C201.313 37.0849 201.213 37.246 201.132 37.3869C201.051 37.5278 200.95 37.6888 200.809 37.8096C200.607 38.0511 200.345 38.2121 200.062 38.2927C199.78 38.3732 199.477 38.4738 199.195 38.5543C198.912 38.6348 198.63 38.7556 198.388 38.9368C198.146 39.1179 197.964 39.4199 197.863 39.8627C197.54 39.6815 197.238 39.6211 196.915 39.7017C196.673 39.762 196.431 39.8023 196.168 39.8828C195.906 39.9432 195.644 39.9835 195.402 40.0036C195.16 40.0237 194.917 39.9835 194.675 39.9029C194.433 39.8224 194.231 39.6614 194.05 39.3997C193.687 39.5608 193.344 39.5406 193.021 39.3796C192.698 39.2186 192.416 38.977 192.133 38.6751C191.851 38.3732 191.588 38.0511 191.326 37.729C191.064 37.3869 190.822 37.1453 190.579 36.9843C190.418 36.5616 190.438 36.2194 190.6 35.9175C190.761 35.6155 190.963 35.3337 191.144 35.0721C191.346 34.7903 191.487 34.5286 191.568 34.2468C191.649 33.9851 191.528 33.6429 191.205 33.2605C191.467 32.878 191.709 32.4553 191.911 32.0326C192.113 31.6099 192.335 31.1872 192.557 30.7444C192.779 30.3217 193.021 29.899 193.263 29.4964C193.505 29.0939 193.828 28.7517 194.191 28.4699C194.03 28.2887 193.949 28.1076 193.949 27.9465C193.949 27.7855 193.989 27.6043 194.07 27.4433C194.151 27.2823 194.231 27.1011 194.352 26.9401C194.453 26.7791 194.534 26.618 194.595 26.457L195.745 25.9135L195.462 24.9876C195.745 25.048 195.967 25.0279 196.108 24.9474C196.249 24.8668 196.35 24.7461 196.431 24.6052C196.491 24.4441 196.552 24.2831 196.592 24.0818C196.632 23.8805 196.693 23.7195 196.774 23.5585C196.895 23.3169 197.097 23.1559 197.359 23.0553C197.904 22.6326 198.448 22.2099 198.993 21.7268C199.538 21.2638 200.062 20.8009 200.607 20.3782C201.152 19.9353 201.697 19.5126 202.282 19.1101C202.867 18.7075 203.492 18.3653 204.178 18.0835C204.643 18.164 205.026 18.3049 205.308 18.5062C205.591 18.7075 205.793 18.9692 205.934 19.251C206.075 19.5328 206.196 19.8548 206.277 20.197C206.358 20.5392 206.438 20.8814 206.519 21.2236C206.64 21.6664 206.801 22.0287 206.983 22.3508C207.165 22.6527 207.487 22.9144 207.931 23.1358C207.568 23.7598 207.427 24.3636 207.508 24.9876C207.588 25.5915 207.669 26.2356 207.75 26.8998C207.83 27.5238 207.83 28.1277 207.73 28.7315C207.629 29.3354 207.245 29.8587 206.559 30.3217C206.499 30.5029 206.499 30.7042 206.519 30.9054C206.539 31.1067 206.559 31.3281 206.559 31.5294C206.559 31.7307 206.519 31.932 206.438 32.1132C206.358 32.2943 206.216 32.4352 206.015 32.5359C206.257 32.8177 206.378 33.0995 206.398 33.3813C206.418 33.6631 206.418 33.9449 206.438 34.1864C206.458 34.4481 206.519 34.6695 206.64 34.8909C206.761 35.0922 207.044 35.2532 207.487 35.3539C207.568 35.6961 207.629 35.9376 207.709 36.1188C207.77 36.2798 207.851 36.4207 207.952 36.5213C208.052 36.622 208.173 36.7226 208.335 36.8031C208.496 36.9038 208.698 37.0245 208.96 37.2057C209.162 37.2661 209.404 37.2661 209.667 37.2057C209.929 37.1453 210.131 37.2258 210.292 37.4472C210.413 37.3265 210.574 37.246 210.756 37.2258C210.938 37.2057 211.119 37.2258 211.26 37.246L211.765 38.0914C212.047 37.8901 212.39 37.7089 212.754 37.5479C213.117 37.3869 213.48 37.2661 213.823 37.1654C214.226 37.0648 214.61 36.9642 215.013 36.9038L218.625 34.75ZM203.492 21.4651C203.25 21.6664 202.968 21.8878 202.625 22.0891C202.282 22.2904 201.939 22.5118 201.616 22.7533C201.293 22.9949 201.011 23.2364 200.769 23.5182C200.527 23.8 200.385 24.102 200.345 24.4643C199.74 24.5649 199.316 24.8065 199.094 25.209C198.852 25.5915 198.67 26.0343 198.509 26.4973C198.347 26.9602 198.186 27.4232 198.004 27.866C197.823 28.329 197.5 28.6712 197.016 28.9328C196.854 29.0335 196.713 29.0939 196.592 29.0939C196.612 29.0939 196.532 29.1542 196.35 29.2549C196.068 29.4562 195.805 29.7178 195.603 30.0399C195.402 30.3418 195.22 30.684 195.079 31.0463C194.938 31.4087 194.796 31.771 194.675 32.1534C194.554 32.5359 194.453 32.878 194.332 33.18C193.969 33.2404 193.687 33.3007 193.505 33.4215C193.323 33.5222 193.202 33.6429 193.162 33.7436C193.122 33.8643 193.122 34.0052 193.182 34.1462C193.243 34.3072 193.303 34.4682 193.424 34.6494C193.525 34.8104 193.646 34.9916 193.767 35.1928C193.888 35.3941 193.989 35.6155 194.07 35.8168C194.151 36.0181 194.191 36.2395 194.211 36.4408C194.231 36.6421 194.171 36.8434 194.03 37.0245C194.393 37.3063 194.756 37.3667 195.099 37.2057C195.442 37.0447 195.765 36.8434 196.047 36.6421C196.148 36.5616 196.269 36.4811 196.39 36.3804C196.511 36.2999 196.632 36.2194 196.774 36.159C197.379 36.2798 197.924 36.2395 198.428 36.0382C198.933 35.837 199.397 35.5552 199.8 35.1928C200.224 34.8305 200.627 34.4481 201.031 34.0254C201.434 33.6027 201.818 33.2404 202.221 32.9384L201.899 32.6365C202.363 32.5157 202.706 32.3346 202.907 32.1132C203.109 31.8917 203.23 31.6502 203.291 31.3483C203.351 31.0665 203.351 30.7645 203.291 30.4425C203.23 30.1204 203.19 29.7782 203.17 29.4159C203.149 29.2146 203.129 29.0133 203.15 28.8121C203.17 28.6108 203.21 28.4095 203.291 28.2082C203.089 27.6043 203.049 27.0407 203.19 26.4973C203.331 25.9538 203.533 25.4305 203.775 24.9272C204.017 24.424 204.259 23.9208 204.501 23.3975C204.743 22.8741 204.865 22.3306 204.865 21.767L203.492 21.4651Z"
          fill="black" />
    <path d="M238.64 37.4271C238.66 37.729 238.62 37.9706 238.479 38.1316C238.338 38.2926 238.176 38.4134 237.954 38.4738C237.732 38.5543 237.49 38.6147 237.228 38.6549C236.965 38.6952 236.744 38.7757 236.562 38.8764C235.795 38.7958 235.069 38.6952 234.363 38.5543C233.657 38.4134 232.991 38.192 232.385 37.8901C231.78 37.5881 231.235 37.2057 230.751 36.7025C230.267 36.2194 229.843 35.5954 229.5 34.8305C229.843 34.287 229.964 33.6832 229.863 33.0189C229.762 32.3547 229.662 31.7106 229.561 31.1067C229.46 30.4827 229.48 29.9191 229.601 29.3958C229.722 28.8724 230.166 28.4698 230.953 28.1478C230.892 27.866 230.913 27.5439 230.973 27.2219C231.034 26.8797 230.933 26.5979 230.67 26.3765C229.742 26.6784 228.955 27.1212 228.269 27.705C227.583 28.2686 226.938 28.8925 226.312 29.5769C225.687 30.2412 225.081 30.9255 224.456 31.6099C223.831 32.2943 223.165 32.8981 222.418 33.4215C222.075 33.4416 221.712 33.4215 221.329 33.3611C220.945 33.3007 220.622 33.4014 220.36 33.6832C220.38 33.8643 220.461 34.0254 220.562 34.1461C220.663 34.2669 220.743 34.4078 220.824 34.5286C220.885 34.6493 220.925 34.7902 220.925 34.9311C220.925 35.072 220.824 35.2331 220.643 35.4142C220.38 35.6759 220.098 35.8772 219.795 36.0583C219.493 36.2194 219.21 36.4005 218.928 36.6018C218.645 36.8031 218.423 37.0245 218.242 37.2862C218.06 37.5479 217.959 37.8901 217.959 38.3329C217.798 38.2524 217.656 38.2322 217.535 38.2725C217.414 38.3127 217.273 38.3933 217.152 38.4939C217.031 38.5946 216.93 38.7153 216.809 38.8361C216.708 38.9569 216.607 39.0776 216.486 39.138C216.426 39.2588 216.446 39.3796 216.527 39.4601C216.607 39.5406 216.688 39.6412 216.809 39.7419C216.708 40.0237 216.567 40.2048 216.385 40.2652C216.224 40.3256 216.022 40.3457 215.841 40.2854C215.639 40.225 215.437 40.1445 215.255 40.0237C215.054 39.9029 214.872 39.8023 214.731 39.7419C214.65 39.3997 214.61 39.0173 214.569 38.5744C214.549 38.1316 214.549 37.7089 214.61 37.2661C214.67 36.8434 214.771 36.4408 214.933 36.0382C215.094 35.6356 215.336 35.3337 215.639 35.072C215.74 34.9915 215.82 34.9513 215.881 34.911C215.941 34.8909 216.002 34.8305 216.083 34.75C216.284 34.5084 216.446 34.2669 216.506 33.9851C216.587 33.7234 216.648 33.4416 216.708 33.1598C216.769 32.878 216.829 32.5962 216.93 32.3345C217.031 32.0729 217.192 31.8313 217.414 31.6099C217.313 31.1872 217.313 30.8249 217.435 30.5028C217.556 30.1808 217.717 29.8789 217.899 29.5769C218.1 29.275 218.302 28.9731 218.484 28.6913C218.665 28.4095 218.807 28.0673 218.867 27.705C218.887 27.5842 218.907 27.4433 218.887 27.3426C218.867 27.2219 218.867 27.1011 218.867 26.9803C218.807 26.5576 218.867 26.2557 219.008 26.0343C219.15 25.8129 219.331 25.6317 219.553 25.4908C219.775 25.3499 220.017 25.1889 220.259 25.048C220.501 24.887 220.723 24.6655 220.905 24.3435C221.672 24.7058 222.115 25.1889 222.257 25.7927C222.398 26.3966 222.438 27.081 222.398 27.8257C221.954 28.1075 221.611 28.5101 221.369 29.0133C221.127 29.5165 220.965 29.9996 220.905 30.4626C220.965 30.6236 221.026 30.7041 221.127 30.7041C221.228 30.7243 221.329 30.7041 221.45 30.6639C221.571 30.6236 221.672 30.5834 221.793 30.523C221.894 30.4626 221.994 30.4425 222.116 30.4425C223.064 29.7983 223.992 29.0737 224.94 28.2686C225.868 27.4634 226.595 26.5576 227.119 25.5109C227.886 25.1486 228.612 24.7259 229.278 24.2428C229.964 23.7598 230.711 23.4176 231.518 23.176L232.426 22.2904C232.547 22.4916 232.708 22.552 232.89 22.4313C233.071 22.3105 233.253 22.1696 233.435 22.0287C233.616 21.8677 233.798 21.7871 233.959 21.767C234.121 21.7469 234.302 21.928 234.443 22.3105C234.706 22.9747 234.766 23.639 234.645 24.263C234.504 24.9071 234.302 25.5109 234.04 26.1349C233.757 26.7388 233.475 27.3628 233.192 27.9868C232.91 28.6107 232.728 29.2347 232.688 29.8789C232.688 30.0399 232.688 30.2009 232.688 30.3619C232.688 30.523 232.668 30.7041 232.648 30.8853C232.587 31.4288 232.527 32.0125 232.426 32.6566C232.325 33.3007 232.365 33.8643 232.527 34.3877C232.648 34.8506 232.93 35.2733 233.354 35.6356C233.778 35.998 234.141 36.3603 234.464 36.7226C234.645 36.7025 234.827 36.7025 235.008 36.7628C235.19 36.8232 235.372 36.8635 235.533 36.9239C235.694 36.9843 235.876 37.0044 236.017 36.9843C236.179 36.9641 236.34 36.8836 236.481 36.7226C236.663 36.6421 236.844 36.6421 237.006 36.7427C237.167 36.8434 237.349 36.944 237.49 37.0648C237.631 37.1856 237.813 37.3063 237.974 37.3868C238.237 37.5076 238.418 37.5076 238.64 37.4271Z"
          fill="black" />
    <path d="M254.257 37.3667L254.035 37.0849L256.053 37.568V38.8361H250.02V37.568L252.058 37.0849L251.836 37.3667V22.0287L252.037 22.2501L250.02 21.7872V20.5191L254.257 20.358V37.3667Z"
          fill="black" />
    <path d="M262.126 37.3667L261.904 37.0849L263.942 37.568V38.8361H257.909V37.568L259.947 37.0849L259.705 37.3667V27.7653L259.927 27.9867L257.909 27.5238V26.2557L262.126 26.1148V37.3667ZM260.794 23.7799C260.35 23.7799 260.007 23.639 259.725 23.3773C259.442 23.1156 259.301 22.7332 259.301 22.23C259.301 21.7267 259.442 21.3443 259.745 21.0826C260.027 20.821 260.391 20.6801 260.835 20.6801C261.278 20.6801 261.662 20.821 261.944 21.0826C262.227 21.3443 262.368 21.7267 262.368 22.23C262.368 22.7332 262.227 23.1156 261.924 23.3773C261.621 23.639 261.218 23.7799 260.794 23.7799Z"
          fill="black" />
    <path d="M265.536 38.816V37.5479L267.695 37.0447L267.352 37.5278V21.9281L267.574 22.23L265.536 21.767V20.4989L269.773 20.3379V31.3885L269.329 31.0262H272.597L271.992 31.308L274.413 27.4836L274.615 27.7654L272.719 27.4836V26.2155L278.247 26.0544V27.3024L276.108 27.7654L276.794 27.3628L273.848 31.932V31.2677L277.319 37.4472L276.915 37.0849L278.852 37.568V38.816H275.543L272.113 32.4755L272.557 32.6768H269.389L269.833 32.4553V37.5278L269.551 37.0447L271.589 37.5479V38.816H265.536Z"
          fill="black" />
    <path d="M285.349 39.0575C284.239 39.0575 283.251 38.8159 282.403 38.3329C281.556 37.8498 280.89 37.1251 280.426 36.1791C279.942 35.233 279.72 34.0857 279.72 32.717C279.72 31.3281 279.962 30.1204 280.466 29.1139C280.971 28.1075 281.657 27.3225 282.565 26.779C283.473 26.2355 284.542 25.9537 285.773 25.9537C286.943 25.9537 287.912 26.1953 288.658 26.6784C289.405 27.1615 289.97 27.8056 290.333 28.651C290.696 29.4762 290.878 30.4424 290.878 31.5092C290.878 31.7105 290.877 31.9319 290.857 32.1332C290.837 32.3345 290.817 32.5761 290.777 32.8579H281.596V31.2073H288.598L288.376 31.3482C288.396 30.7041 288.315 30.1002 288.133 29.5568C287.952 29.0133 287.649 28.5906 287.246 28.2484C286.822 27.9263 286.277 27.7653 285.571 27.7653C284.804 27.7653 284.179 27.9666 283.674 28.3692C283.17 28.7717 282.807 29.3353 282.565 30.0197C282.323 30.7242 282.202 31.5294 282.202 32.4352C282.202 33.4013 282.343 34.2467 282.605 34.9714C282.888 35.696 283.291 36.2596 283.856 36.6622C284.421 37.0647 285.107 37.266 285.934 37.266C286.519 37.266 287.145 37.1453 287.831 36.9238C288.517 36.7024 289.223 36.3602 289.949 35.9174L290.797 37.2258C289.889 37.8498 288.981 38.3127 288.053 38.6147C287.125 38.9166 286.217 39.0575 285.349 39.0575Z"
          fill="black" />
    <path d="M309.339 28.2886L308.996 28.3691C309.783 27.564 310.63 26.9601 311.498 26.5576C312.386 26.155 313.213 25.9537 314 25.9537C314.989 25.9537 315.816 26.2758 316.502 26.94C317.188 27.5841 317.511 28.5906 317.511 29.9191V37.4874L317.248 37.105L319.306 37.5881V38.8562H313.455V37.5881L315.412 37.105L315.089 37.5076V30.4625C315.089 29.5366 314.888 28.8724 314.504 28.4295C314.121 28.0068 313.617 27.7854 312.971 27.7854C312.446 27.7854 311.881 27.9464 311.236 28.2484C310.59 28.5503 309.965 29.0334 309.339 29.6373L309.541 29.0938C309.561 29.2347 309.561 29.3756 309.581 29.4963C309.581 29.6171 309.601 29.7379 309.601 29.8385V37.4673L309.339 37.0848L311.236 37.5679V38.836H305.546V37.5679L307.503 37.0848L307.18 37.4874V30.4424C307.18 29.5165 306.978 28.8522 306.595 28.4094C306.192 27.9867 305.687 27.7653 305.082 27.7653C304.557 27.7653 303.972 27.9062 303.347 28.2081C302.721 28.51 302.096 28.9529 301.49 29.5567L301.652 29.1542V37.4673L301.39 37.0848L303.306 37.5478V38.8159H297.455V37.5478L299.594 37.0446L299.251 37.4472V27.564L299.594 27.9867L297.455 27.4835V26.2154L301.127 26.0544L301.45 28.3691L301.127 28.2484C301.894 27.4432 302.721 26.8595 303.609 26.4771C304.497 26.0946 305.324 25.9135 306.111 25.9135C306.857 25.9135 307.523 26.0946 308.088 26.4771C308.653 26.8998 309.077 27.4835 309.339 28.2886Z"
          fill="black" />
    <path d="M325.864 39.0575C324.754 39.0575 323.765 38.8159 322.918 38.3329C322.07 37.8498 321.405 37.1251 320.941 36.1791C320.456 35.233 320.234 34.0857 320.234 32.717C320.234 31.3281 320.477 30.1204 320.981 29.1139C321.485 28.1075 322.171 27.3225 323.079 26.779C323.987 26.2355 325.057 25.9537 326.287 25.9537C327.458 25.9537 328.426 26.1953 329.173 26.6784C329.919 27.1615 330.484 27.8056 330.847 28.651C331.21 29.4762 331.392 30.4424 331.392 31.5092C331.392 31.7105 331.392 31.9319 331.372 32.1332C331.352 32.3345 331.332 32.5761 331.291 32.8579H322.111V31.2073H329.112L328.89 31.3482C328.91 30.7041 328.83 30.1002 328.648 29.5568C328.466 29.0133 328.164 28.5906 327.76 28.2484C327.337 27.9263 326.792 27.7653 326.086 27.7653C325.319 27.7653 324.693 27.9666 324.189 28.3692C323.685 28.7717 323.321 29.3353 323.079 30.0197C322.837 30.7242 322.716 31.5294 322.716 32.4352C322.716 33.4013 322.857 34.2467 323.12 34.9714C323.402 35.696 323.806 36.2596 324.371 36.6622C324.936 37.0647 325.622 37.266 326.449 37.266C327.034 37.266 327.659 37.1453 328.345 36.9238C329.031 36.7024 329.738 36.3602 330.464 35.9174L331.311 37.2258C330.403 37.8498 329.495 38.3127 328.567 38.6147C327.639 38.9166 326.751 39.0575 325.864 39.0575Z"
          fill="black" />
    <path d="M117.661 5.12061H346V52.6041H1V5.12061H40.7681" stroke="black" stroke-width="0.5" stroke-miterlimit="10" />
</svg>