<svg xmlns="http://www.w3.org/2000/svg" fill="none" viewBox="0 0 347 53">
    <path fill="#fff"
          d="m26.705 37.548-.363-.503 2.179.503v1.268l-3.672.16-.343-2.294.201.08c-.686.786-1.452 1.37-2.26 1.732-.806.382-1.593.563-2.34.563-.928 0-1.735-.302-2.4-.905-.667-.604-1.01-1.51-1.01-2.718 0-.926.202-1.65.606-2.153.403-.524.968-.886 1.694-1.108.727-.221 1.574-.342 2.563-.342h2.946l-.222.262V30.04c0-.825-.222-1.41-.646-1.771-.444-.363-1.049-.544-1.816-.544-.403 0-.827.04-1.27.12a8.98 8.98 0 0 0-1.433.383l.343-.342L19.199 30h-1.594l-.201-3.18a26.961 26.961 0 0 1 2.723-.685c.828-.141 1.594-.222 2.32-.222 1.353 0 2.402.302 3.169.886.746.584 1.13 1.51 1.13 2.798v7.95h-.041Zm-7.566-2.275c0 .685.161 1.188.504 1.51.343.322.767.483 1.291.483.525 0 1.09-.161 1.715-.483a7.7 7.7 0 0 0 1.796-1.308l-.141.603V33.12l.222.242h-2.583c-1.07 0-1.795.161-2.199.483-.404.322-.605.785-.605 1.43ZM68.753 28.35c-.242 1.247-.645 2.253-1.25 2.998-.586.765-1.393 1.53-2.382 2.315.182.08.303.161.343.262.04.1.06.221.06.362l-.08.201c-.242-.18-.464-.282-.666-.302a.995.995 0 0 0-.585.121c-.181.08-.363.201-.545.342-.181.141-.363.302-.544.443-.585 0-1.19.08-1.816.242-.626.16-1.251.281-1.836.362-.585.08-1.13.04-1.635-.14-.504-.162-.907-.585-1.23-1.269-.202-.08-.424-.14-.646-.221-.222-.06-.444-.121-.646-.182-.444.826-.988 1.63-1.634 2.396a18.107 18.107 0 0 1-4.64 3.905c-.888.523-1.756.926-2.624 1.207l-.12.04c-.102-.16-.202-.261-.283-.301-.08-.06-.161-.06-.262-.04-.101.02-.202.06-.323.1-.121.04-.262.06-.444.06l-.283.464c-.363-.262-.585-.544-.665-.866-.081-.322-.283-.543-.586-.684l-.363.422-.12-.12c-.465-.463-.889-1.067-1.231-1.832a12.9 12.9 0 0 1-.828-2.395 18.449 18.449 0 0 1-.424-2.497c-.06-.825-.06-1.55.02-2.173a3.566 3.566 0 0 0-.746-.544c-.282-.16-.464-.382-.504-.704l.04-.04c.06-.302.202-.524.444-.625.242-.1.525-.16.807-.2.282-.021.565-.041.827-.041.263 0 .424-.06.505-.161 0-.161-.06-.302-.182-.463-.12-.161-.222-.302-.343-.423 0-.261.06-.443.202-.584.12-.12.282-.241.424-.342.14-.1.302-.201.423-.282.121-.08.202-.18.202-.302 0-.1-.02-.2-.08-.261-.061-.08-.101-.181-.162-.302.404-.06.625-.181.706-.383.08-.2.242-.422.505-.664-.162-.201-.182-.422-.081-.684.1-.242.222-.483.363-.745.121-.241.222-.483.303-.704.06-.222 0-.423-.222-.604-.02 0-.04 0-.04-.02s-.02-.02-.041-.02l1.634-4.831c.545-1.61 1.11-3.221 1.736-4.791a73.473 73.473 0 0 1 2.017-4.65 40.28 40.28 0 0 1 2.462-4.468c.02-.342.12-.604.302-.785.162-.181.384-.322.606-.403.242-.08.504-.181.787-.262.282-.08.544-.18.786-.322.243-.14.424-.322.586-.563.161-.242.242-.564.242-1.007.423.101.807.161 1.19.161.363 0 .727.02 1.09.04.363.02.686.101 1.029.242.322.121.645.383.968.785l.04.04c.02.101.02.262-.02.443s-.06.363-.06.483c0 .524.04 1.047.141 1.59.1.544.121 1.088.1 1.61a3.588 3.588 0 0 1-.362 1.47c-.202.463-.606.846-1.19 1.188.262.664.262 1.268.02 1.811a6.472 6.472 0 0 1-1.01 1.53 28.366 28.366 0 0 0-1.21 1.51 2.884 2.884 0 0 0-.565 1.751 2.435 2.435 0 0 0-.989.866c-.242.382-.464.764-.686 1.187a6.61 6.61 0 0 1-.746 1.147c-.283.343-.686.604-1.21.765a6.083 6.083 0 0 1-1.292 2.476 63.755 63.755 0 0 1-1.937 2.134c-.666.704-1.25 1.429-1.755 2.174-.505.745-.767 1.61-.767 2.596-.726.705-1.21 1.51-1.433 2.416a11.678 11.678 0 0 0-.343 2.798c0 .281.02.563.04.845.021.282.041.564.041.845-.202-.12-.403-.08-.545.162l-.04.08c.202.544.444 1.067.726 1.57.283.503.626.986 1.05 1.409.686-.201 1.351-.443 2.037-.684a20.873 20.873 0 0 1 2.079-.645c.161-.623.444-1.046.887-1.308.444-.262.868-.463 1.292-.644a5.514 5.514 0 0 0 1.17-.664c.343-.262.504-.725.504-1.39h.081c.404-.08.686-.26.908-.522.202-.282.383-.584.484-.926.121-.343.202-.725.242-1.107.04-.383.081-.745.101-1.047-.08-.12-.1-.322-.06-.564.04-.241.08-.503.12-.785.041-.261.061-.543.041-.825a1.764 1.764 0 0 0-.222-.785v-.08l.04-.081c.122-.262.263-.503.404-.725.121-.221.242-.463.363-.724.263-.705.565-1.248.908-1.63.343-.383.928-.584 1.776-.584.524.302.827.644.928 1.006.1.362.08.745-.02 1.167-.101.423-.222.846-.364 1.309a2.8 2.8 0 0 0-.08 1.348l.08.121a.657.657 0 0 0-.423.242c-.141.12-.262.261-.404.423a7.74 7.74 0 0 0-.383.462c-.121.161-.222.282-.303.383.182.282.283.584.323.865.02.302.06.564.1.826.041.261.142.463.324.664.161.201.484.302.928.322.464.06.968.12 1.453.201.504.08.988.121 1.472.141.485.02.969-.04 1.413-.14.464-.101.888-.323 1.271-.665 0-.342.08-.564.222-.664.141-.1.323-.161.504-.201l.606-.06c.201-.021.383-.102.504-.283-.161-.06-.262-.1-.303-.18-.04-.061-.161-.021-.343.14l-.12-.543.241-.162c.182.162.364.202.545.141.182-.06.363-.16.525-.302.161-.14.343-.301.504-.463.162-.16.343-.301.484-.362l.243-.342.403.161ZM56.85 3.65c-.08.02-.161.06-.282.121-.364.181-.767.382-1.191.624a8.018 8.018 0 0 0-1.17.805 4.614 4.614 0 0 0-.888 1.007 2.323 2.323 0 0 0-.363 1.268v.362c0 .161.02.282.08.322a.944.944 0 0 0-.302.322c-.101.161-.202.342-.323.544a2.81 2.81 0 0 1-.424.543 1.16 1.16 0 0 1-.645.322c.242.342.363.684.363 1.027 0 .342-.06.684-.202 1.026a5.161 5.161 0 0 1-.525.986c-.221.323-.443.625-.645.906l-.162-.12c.121.523.142 1.006.061 1.449a7.75 7.75 0 0 1-.404 1.328c-.16.423-.363.846-.564 1.268a6.97 6.97 0 0 0-.505 1.329 6.59 6.59 0 0 0 .565-.745c.161-.261.343-.523.525-.785.06.06.14.12.302.222.142.08.242.14.303.14a3.932 3.932 0 0 1-.242-.422 3.951 3.951 0 0 0-.242-.423v-.08a6.38 6.38 0 0 1 1.25-1.49c.505-.423.97-.865 1.413-1.308 0-.725.141-1.309.444-1.772a7.716 7.716 0 0 1 1.029-1.248 13 13 0 0 0 1.029-1.127c.303-.382.444-.845.444-1.409 0-.12-.02-.302-.04-.523a1.539 1.539 0 0 0-.122-.524l.121-.04c.505-.16.828-.382.99-.684.16-.302.241-.624.261-.966.02-.343 0-.725-.04-1.128 0-.382.02-.764.1-1.127Z" />
    <path fill="#fff"
          d="M92.037 26.638c.1.383.06.725-.121.986a3.093 3.093 0 0 1-.727.725 6.662 6.662 0 0 1-.988.564 3.732 3.732 0 0 0-.888.563c-1.19.262-2.26.443-3.208.564-.969.12-2.018.262-3.168.443-.343.06-.666.04-.968-.02-.303-.06-.605-.08-.928-.06-.182 0-.364 0-.505-.02-.161-.021-.323 0-.464.02-.605.06-1.009.24-1.19.603a4.711 4.711 0 0 0-.444 1.208c-.121.463-.262.885-.424 1.288-.161.403-.524.684-1.09.825-.06.121-.04.242.061.343.101.1.162.2.222.281-.444.121-.746.363-.888.705-.14.342-.262.664-.383 1.006-.1.342-.262.624-.444.846-.181.221-.565.301-1.13.241a9.682 9.682 0 0 1-2.885 2.073c-1.11.524-2.24.866-3.43 1.027a3.83 3.83 0 0 1-.605-.382 10.66 10.66 0 0 0-.585-.423 2.202 2.202 0 0 0-.626-.282 1.62 1.62 0 0 0-.767-.02 4.134 4.134 0 0 0-.343-1.51 6.302 6.302 0 0 0-.766-1.328c-.06-.463 0-.906.181-1.309.162-.402.343-.805.525-1.187a6.5 6.5 0 0 0 .444-1.188c.12-.402.1-.865-.06-1.368.261-.162.443-.343.524-.544.1-.201.161-.423.202-.644.04-.222.1-.423.181-.624.08-.201.262-.362.545-.483-.202-.624-.182-1.087.1-1.369a5.2 5.2 0 0 1 1.01-.805 7.326 7.326 0 0 0 1.11-.785c.342-.282.463-.705.403-1.288.161-.161.343-.282.545-.383.201-.1.423-.201.605-.282.181-.08.383-.18.565-.281.181-.101.363-.242.504-.423-.181-.12-.262-.262-.262-.383.02-.12.04-.261.1-.402.061-.141.122-.282.182-.443a.534.534 0 0 0-.02-.463c.706.1 1.332 0 1.877-.282.544-.302 1.049-.604 1.533-.905a5.638 5.638 0 0 1 1.473-.665c.504-.12 1.07.02 1.735.463.06.181.141.443.263.805.12.343.242.705.363 1.067.12.363.222.705.343 1.047.1.342.161.584.201.745v3.099c.767.443 1.514.705 2.28.806.767.1 1.514-.08 2.28-.524.283.262.565.322.828.222.262-.121.524-.242.766-.403a1.59 1.59 0 0 1 .767-.262c.262-.02.525.202.787.645a2.551 2.551 0 0 1 1.15-.645c.403-.1.807-.14 1.23-.16.424-.02.828-.04 1.252-.101.383-.121.787-.282 1.17-.564Zm-15.395 3.764c-.524 0-.989-.12-1.352-.362a10.488 10.488 0 0 1-1.15-.845c-.383-.303-.766-.604-1.19-.866-.404-.282-.908-.443-1.473-.483a5.568 5.568 0 0 1-.827.865 5.563 5.563 0 0 0-.828.866 2.455 2.455 0 0 0-.484 1.006c-.1.363-.04.785.182 1.248-.605.282-1.009.685-1.231 1.228a7.503 7.503 0 0 0-.424 1.731l-.181 1.872c-.06.624-.222 1.188-.505 1.67l.868-.583c.1.06.181.12.262.242.06.1.08.221.02.342.202-.201.444-.362.707-.483a5.46 5.46 0 0 1 .807-.282c.282-.06.544-.12.827-.181.282-.06.545-.12.807-.242.666.363 1.13.443 1.412.242.283-.202.525-.523.707-.926.181-.423.383-.846.585-1.308.201-.463.544-.725 1.029-.826l-.283-.282c.444-.543.848-1.107 1.21-1.69.364-.584.525-1.228.505-1.953Zm.263-3.1c0-.382.06-.805.201-1.248.121-.442.242-.865.323-1.308.08-.423.08-.825-.02-1.228-.101-.382-.343-.745-.767-1.047a1.966 1.966 0 0 0-.706.645c-.182.281-.363.543-.545.825a2.991 2.991 0 0 1-.645.684c-.243.181-.565.242-.969.161-.141.302-.141.564 0 .765.121.202.283.383.464.544.182.16.363.342.525.523.161.181.222.423.181.705.101.08.242.14.424.22.182.061.383.102.565.122.182.02.383 0 .565-.06a.82.82 0 0 0 .403-.303Z" />
    <path fill="#fff"
          d="M112.214 34.206c-.545 1.168-1.07 2.094-1.574 2.758-.505.664-1.049 1.228-1.675 1.69-.625.464-1.352.866-2.219 1.269-.868.403-1.957.886-3.269 1.47a4.417 4.417 0 0 0-1.533-.101c-.505.06-.989.1-1.433.14-.464.02-.908-.02-1.311-.14-.424-.121-.808-.443-1.15-.946h-.586c.02-.342 0-.685-.1-1.067-.101-.383-.344-.584-.767-.644.262-.282.424-.604.504-.946a9.06 9.06 0 0 0 .182-1.067c.04-.362.1-.705.181-1.047.081-.342.283-.624.585-.845-.322-.423-.443-.846-.383-1.268.06-.423.202-.846.424-1.289.222-.422.464-.845.706-1.288.242-.422.383-.865.383-1.308a2.447 2.447 0 0 1-.645-.644c-.202-.282-.464-.342-.807-.222a60.654 60.654 0 0 1-2.119 1.913 45.306 45.306 0 0 0-2.078 1.892 29.804 29.804 0 0 0-1.897 2.033c-.585.704-1.13 1.49-1.634 2.355-.444.08-.787.281-1.029.624a7.034 7.034 0 0 0-.625 1.066 9.139 9.139 0 0 1-.606 1.067 1.494 1.494 0 0 1-.928.665c-.12.422-.262.825-.424 1.268l-.423 1.268a3.033 3.033 0 0 0-.606-.202c-.242-.06-.484-.12-.726-.2a3.621 3.621 0 0 1-.625-.283.852.852 0 0 1-.364-.442c-.02-.06-.04-.161-.02-.322s.02-.282.02-.322c.06-.725.242-1.41.565-2.034.323-.623.686-1.248 1.05-1.872a33.16 33.16 0 0 0 1.029-1.851c.322-.624.484-1.309.504-2.053.404 0 .646-.121.767-.343.12-.221.201-.483.282-.744a2.68 2.68 0 0 1 .262-.705c.101-.201.343-.282.707-.241a1.355 1.355 0 0 1-.303-1.027c.04-.382.141-.745.303-1.127.161-.383.363-.745.585-1.087.242-.342.423-.664.585-.946-.02-.363 0-.725.1-1.087.102-.362.263-.684.485-.966.242-.282.444-.564.626-.805.181-.262.363-.524.544-.826.101-.12.182-.261.263-.422.06-.161.14-.302.222-.423.242-.342.403-.684.464-1.067.08-.382.16-.745.262-1.127.1-.383.222-.705.403-1.007.162-.302.485-.543.928-.724 0-.282.04-.544.142-.805.1-.242.181-.504.302-.765.101-.262.202-.503.303-.765.1-.242.141-.503.141-.805.081-.121.202-.262.363-.383a4.01 4.01 0 0 0 .424-.382c.121-.12.242-.262.323-.403.08-.14.1-.322.04-.523.02-.342.02-.684-.02-1.047-.04-.362.06-.664.303-.926-.06-.342 0-.604.141-.825.141-.201.323-.382.525-.543.201-.162.444-.302.686-.443.242-.141.464-.302.645-.483-.141-.182-.161-.383-.08-.624.08-.242.181-.463.343-.685.14-.221.302-.443.484-.644.181-.201.323-.382.403-.543a9.39 9.39 0 0 0 .424-.926c.121-.302.262-.604.424-.866.161-.282.343-.523.565-.765.222-.241.524-.422.887-.583-.1-.524-.08-.926.101-1.208.162-.282.404-.523.707-.745.302-.201.625-.402.968-.604.343-.201.626-.463.827-.825.283-.08.606-.161.949-.262.343-.08.686-.16 1.029-.2.343-.041.665-.041.988.02.323.06.606.2.868.422l.202.201c.02.02.04.04.04.06 0 .02 0 .04.02.081.02.04.081.1.182.221.101.101.201.202.323.282l.322.322c.021.182.021.383 0 .604-.02.222-.04.443-.04.644 0 .202.04.403.101.584.06.181.222.302.484.382a8.408 8.408 0 0 0-.282 2.416c.02.845.04 1.71.04 2.576 0 .866-.061 1.711-.202 2.496a4.147 4.147 0 0 1-1.029 2.134l-.282 1.973c-.343.02-.585.14-.706.322a1.884 1.884 0 0 0-.283.684c-.06.262-.101.523-.141.805-.04.282-.141.524-.303.705-.202.261-.423.563-.625.885a6.413 6.413 0 0 1-.666.926 3.914 3.914 0 0 1-.807.725c-.303.201-.646.282-1.049.282a2.03 2.03 0 0 1-.323.543c-.162.201-.343.403-.525.604a4.448 4.448 0 0 1-.605.503c-.202.141-.404.242-.545.282a4.49 4.49 0 0 1-.565.181c-.161.04-.363.121-.565.242-.242.12-.464.302-.706.503a6.41 6.41 0 0 1-.746.543 2.615 2.615 0 0 1-.828.323c-.282.06-.585.04-.867-.101-.343.422-.727.664-1.17.765-.444.1-.848.16-1.251.201-.404.04-.787.12-1.15.282-.364.16-.626.463-.808.946-.06.06-.1.16-.14.322-.041.161-.061.282-.061.322 0 .282-.02.624-.04 1.047-.02.422.08.724.322.926a18.16 18.16 0 0 0 2.704-1.57 14.056 14.056 0 0 1 2.744-1.53l.282.302c.081-.564.323-.866.747-.866.424-.02.847 0 1.291.02h.283c.06 0 .1 0 .141-.02.04-.02.081-.02.141-.02.504 0 .827.201.989.584.161.382.302.765.423 1.127a3.443 3.443 0 0 0-.686 1.107c-.161.423-.322.866-.464 1.349-.141.463-.302.926-.464 1.368-.161.463-.403.866-.686 1.268.242.121.343.282.323.423-.02.161-.081.302-.141.463-.061.161-.081.302-.061.443.021.14.202.262.505.322-.263.181-.444.403-.525.644-.101.242-.161.503-.242.785-.06.282-.141.524-.222.785a1.43 1.43 0 0 1-.464.644c.1.242.182.463.262.685.061.221.081.463.021.765.363.463.746.724 1.129.785.384.06.747.02 1.13-.08.363-.101.747-.202 1.15-.303a2 2 0 0 1 1.231.08c.727-.482 1.251-.784 1.534-.885.282-.1.524-.181.686-.242.161-.06.383-.16.605-.342.242-.18.686-.583 1.332-1.207a4.825 4.825 0 0 0 1.755-.886c.504-.403.948-.725 1.554-1.007Zm-5.872-31.722c.02.302-.04.543-.222.724a4.286 4.286 0 0 1-.565.463c-.202.141-.424.282-.605.423-.202.14-.303.362-.343.644-.343.161-.565.362-.666.624a9.125 9.125 0 0 0-.262.805 3.025 3.025 0 0 1-.303.805c-.141.262-.403.463-.787.624l.283.262a9.028 9.028 0 0 0-2.078 2.758c-.505 1.066-.969 2.113-1.352 3.18a3.499 3.499 0 0 0-.787 1.308c-.162.484-.303.967-.444 1.43a8.065 8.065 0 0 1-.545 1.368c-.222.423-.585.765-1.09.987.263.342.364.644.303.925-.06.282-.202.564-.423.806-.202.261-.424.523-.646.785a1.61 1.61 0 0 0-.383.845c.504.1.988.08 1.472-.04.485-.121.969-.322 1.433-.564a9.836 9.836 0 0 0 1.332-.825c.423-.302.827-.584 1.23-.825l.283.282c1.19-.645 2.159-1.43 2.946-2.356a32.236 32.236 0 0 0 2.219-2.999c-.242-.18-.343-.382-.323-.584.061-.12.121-.281.202-.462.081-.182.141-.343.202-.463.262-.785.464-1.51.585-2.174a30.04 30.04 0 0 0 .726-4.207 73.51 73.51 0 0 0 .303-4.247l-1.695-.302Z" />
    <path fill="#fff"
          d="M139.795 26.94c-.242.242-.424.423-.525.543-.101.121-.222.242-.322.363a5.26 5.26 0 0 1-.323.362c-.121.12-.303.322-.525.584a6.277 6.277 0 0 0-.585.664 3.715 3.715 0 0 1-.625.624c-.323-.08-.565-.04-.727.12-.161.162-.323.323-.464.524-.141.201-.282.383-.403.544-.121.16-.263.241-.444.221-.626.342-1.251.624-1.897.866a7.04 7.04 0 0 0-1.816 1.066l-.323-.301-4.095 1.932c-.142.06-.263.12-.404.241-.141.101-.262.202-.404.262-.585.302-1.17.584-1.795.846-.626.241-1.231.462-1.836.684l-.505.16c.202.524.202.887 0 1.088-.202.201-.504.362-.908.443-.403.08-.827.14-1.291.18-.464.041-.847.122-1.11.283a3.918 3.918 0 0 0-.968-.06c-.323.02-.666.04-1.009.1-.363.06-.706.08-1.029.08a4.76 4.76 0 0 1-1.029-.12h-.081c-.444.2-.827.261-1.17.14a2.277 2.277 0 0 1-.888-.583 6.072 6.072 0 0 1-.726-.966 8.292 8.292 0 0 0-.686-1.027 7.42 7.42 0 0 1-.585-.886 8.002 8.002 0 0 1-.606-1.248 5.259 5.259 0 0 1-.322-1.348 1.73 1.73 0 0 1 .302-1.188c.242-.342.424-.704.565-1.087.141-.382.222-.845.222-1.369 0-.18 0-.342-.02-.503-.02-.16-.02-.322-.02-.503.141 0 .282 0 .424.02.161.02.302.02.443 0a.602.602 0 0 0 .364-.16c.1-.081.141-.242.141-.484 0-.12-.041-.242-.141-.302-.101-.08-.162-.16-.182-.241.161-.242.303-.423.444-.564.141-.14.262-.282.383-.423.101-.14.182-.302.242-.503.061-.201.041-.463-.04-.805a6.665 6.665 0 0 1 1.13-1.45 19.33 19.33 0 0 1 1.352-1.207c.464-.383.968-.745 1.452-1.107.505-.362.969-.745 1.413-1.168.504.202.908.202 1.21 0 .303-.2.565-.442.807-.684.243-.241.465-.443.707-.604.242-.16.544-.08.948.201l.081.081c.706-.704 1.432-1.006 2.138-.926.727.08 1.332.302 1.857.705.524.402.847.825 1.008 1.348.162.503.021.846-.423 1.027.282.282.423.624.423 1.006 0 .383-.1.725-.322 1.007a5.393 5.393 0 0 0-.606.946c-.161.322-.343.664-.524 1.026a13.364 13.364 0 0 1-.868 1.691 4.255 4.255 0 0 1-1.331 1.349c-.465-.121-.787-.08-.969.16-.161.242-.303.484-.383.766-.081.261-.162.483-.283.644-.101.16-.323.1-.666-.161l-.08-.08-.081.08a2.095 2.095 0 0 0-.484.704c-.121.262-.283.463-.485.584a8.088 8.088 0 0 0-.746-.201c-.262-.06-.504-.101-.747-.161 0 .543-.1.966-.322 1.288a2.677 2.677 0 0 1-.807.765c-.323.201-.707.342-1.13.463-.424.12-.828.261-1.251.422a6.33 6.33 0 0 0-1.15.624 2.38 2.38 0 0 0-.848 1.027c.262.282.585.443.989.483.403.04.807.04 1.231 0 .423-.04.827-.06 1.251-.06.403 0 .766.1 1.089.302l.04.04.041-.04a8.152 8.152 0 0 0 1.836-.443c.585-.222 1.17-.463 1.735-.705.565-.241 1.15-.483 1.735-.704a9.49 9.49 0 0 1 1.836-.483.671.671 0 0 0 .525.342c.222.02.444.02.646-.04l.04-.081c.06-.181.101-.342.161-.483.061-.14.121-.302.242-.483.182-.282.404-.503.666-.664.263-.161.545-.262.848-.343.302-.08.625-.12.968-.16.343-.02.686-.061 1.029-.121h.081l.04-.121c.101-.302.242-.523.424-.644a1.46 1.46 0 0 1 .545-.242c.181-.04.403-.08.625-.12.222-.02.444-.101.646-.242.464.16.867.1 1.19-.161.323-.262.626-.524.908-.805l.323.382.121-.16c.404-.363.686-.625.888-.826.202-.181.383-.342.565-.483a5.92 5.92 0 0 1 .645-.423c.243-.14.606-.362 1.05-.644.363-.242.726-.463 1.089-.705a9.48 9.48 0 0 0 1.049-.785c.121.06.202.141.202.282v.403c-.02.06-.04.12-.06.241-.021.141 0 .222.04.262Zm-16.303-4.851c-.02-.02-.04-.04-.06-.04-.02 0-.041-.02-.061-.04-.545-.282-1.009-.423-1.372-.403-.363.02-.706.12-1.009.302a3.611 3.611 0 0 0-.827.745 5.925 5.925 0 0 1-.787.805 2.91 2.91 0 0 1-.968.563c-.363.121-.807.121-1.332-.04-.081.423-.161.825-.222 1.228-.06.402-.121.805-.141 1.228-.444.16-.787.382-1.049.664a4.704 4.704 0 0 0-.626.926c-.161.342-.323.684-.464 1.067-.141.382-.343.724-.565 1.067l.162.2c.101-.06.222-.02.363.122.121.12.222.221.282.261.283-.422.666-.765 1.171-1.046a34.68 34.68 0 0 1 1.493-.806 13.129 13.129 0 0 0 1.473-.805c.464-.302.827-.664 1.069-1.127.847-.241 1.473-.704 1.896-1.389.424-.704.767-1.429 1.07-2.174.06-.16.141-.382.303-.684.08-.282.181-.483.201-.624Z" />
    <path fill="#fff"
          d="M178.07 32.073c-.242.201-.565.463-.969.805-.403.322-.686.624-.807.865a6.388 6.388 0 0 0-.383.705 2.59 2.59 0 0 1-.323.523c-.121.141-.282.262-.464.322-.181.06-.464.121-.807.121 0 .08-.141.242-.424.483-.282.242-.565.504-.887.785-.323.282-.606.524-.868.785-.262.242-.403.403-.403.483l-.364-.2c-.06-.021-.201-.021-.444.02-.242.04-.544.12-.867.24-.323.122-.646.283-.969.484a2.2 2.2 0 0 0-.746.805l-.162-.04c-.403-.1-.786-.121-1.21-.06-.404.06-.807.1-1.211.1-.847.06-1.452-.08-1.856-.362-.404-.302-.807-.866-1.251-1.691a5.062 5.062 0 0 1-.282-.584c-.081-.201-.142-.422-.202-.624v-.16c.363-.202.565-.484.585-.826.02-.342.02-.725-.04-1.107-.061-.383-.081-.765-.101-1.127a.978.978 0 0 1 .423-.886c-.161-.423-.141-.805.061-1.188l.565-1.067c.181-.342.282-.664.282-.966 0-.302-.282-.624-.867-.966-.606.242-1.17.523-1.715.866-.545.342-1.07.704-1.614 1.087a77.08 77.08 0 0 1-1.615 1.107 8.107 8.107 0 0 1-1.715.885 10.109 10.109 0 0 1-1.735 1.53 22.61 22.61 0 0 0-1.755 1.349c-.565.463-1.069.986-1.534 1.57-.464.584-.807 1.308-1.049 2.154-.141-.161-.262-.262-.403-.302-.141-.06-.303-.101-.505-.161-.282-.08-.504-.161-.625-.262-.141-.08-.303-.221-.505-.403l.041-.08c.242-.664.504-1.369.827-2.053a4.916 4.916 0 0 0 .464-2.094c0-.261-.02-.503-.081-.724a2.775 2.775 0 0 1-.08-.725c0-.463.08-.886.242-1.288.161-.403.343-.745.524-1.087.202-.342.384-.664.545-.986.162-.322.262-.665.262-1.027 0-.282-.06-.563-.201-.845a3.245 3.245 0 0 0-.505-.745c-.403-.02-.766.02-1.109.14-.343.122-.686.242-1.029.403a6.875 6.875 0 0 1-1.07.403c-.363.12-.766.161-1.19.14a43.26 43.26 0 0 1-1.695 1.611c-.585.524-1.15 1.047-1.735 1.57a77.544 77.544 0 0 0-3.531 3.301 13.733 13.733 0 0 0-2.744 3.885c-.141.282-.242.584-.343.866a6.483 6.483 0 0 1-.343.865c0 .06-.02.1-.081.161h-.202c-.282 0-.484.08-.565.242a1.5 1.5 0 0 0-.201.523 4.636 4.636 0 0 1-.142.564c-.06.18-.161.302-.363.342a.668.668 0 0 1-.605-.12c-.182-.142-.363-.263-.484-.383l-.041-.04c-.262-.423-.403-.846-.423-1.289-.021-.443.02-.865.141-1.308.121-.423.282-.846.504-1.268.222-.423.444-.805.646-1.168.323-.543.605-1.107.888-1.69a4.162 4.162 0 0 0 .423-1.852c0-.282-.04-.544-.1-.765a27.139 27.139 0 0 1-.182-.685l.868-.583a1.005 1.005 0 0 1-.222-.484 1.292 1.292 0 0 1 0-.402c.02-.12.02-.262.04-.362.02-.121 0-.242-.061-.363v-.12l.323-.343c-.06-.845-.08-1.65-.08-2.415 0-.745-.162-1.53-.465-2.375.364-.342.727-.423 1.07-.262.343.161.686.362 1.029.564v.04l.04.04a4.5 4.5 0 0 1 .545 1.127c.161.443.282.906.383 1.37.101.482.162.945.222 1.408.061.463.081.886.081 1.248 0 .1 0 .201-.02.282-.02.08-.02.181-.02.282l-.243.241c.122.121.283.262.424.383.141.12.323.18.505.16.161-.462.403-.764.746-.905.343-.141.686-.262 1.049-.322.364-.06.666-.181.949-.322.282-.141.423-.443.423-.906 0-.1-.02-.181-.04-.242l.081-.08a22.405 22.405 0 0 1 2.259-1.952 8.98 8.98 0 0 1 2.442-1.309 7.038 7.038 0 0 1 2.683-.342c.928.06 1.937.342 3.007.845l.08.04.424 1.59-.282.263c.262.362.363.785.302 1.268a6.77 6.77 0 0 1-.343 1.409 32.31 32.31 0 0 0-.423 1.308c-.142.402-.122.684.04.866.121.18.383.261.726.241.363-.02.646-.06.848-.08.201-.282.504-.524.887-.745.384-.202.767-.403 1.151-.584a7.788 7.788 0 0 0 1.008-.564c.283-.2.444-.402.464-.644.424.08.767.06 1.029-.06.263-.12.464-.282.626-.523.161-.242.303-.483.424-.765.121-.262.282-.524.443-.785.162-.242.384-.443.646-.564.262-.12.626-.161 1.069-.12a5.445 5.445 0 0 1 2.139-1.31c.827-.26 1.655-.422 2.502-.442.605-.02 1.029.141 1.251.523.242.383.363.826.363 1.349 0 .664-.161 1.329-.464 1.932a23.106 23.106 0 0 1-1.069 1.892c-.404.645-.747 1.329-1.07 2.013-.322.705-.464 1.47-.464 2.335v.403c0 .201.021.382.041.584.02.2.06.382.101.543.04.161.101.282.181.322.101.06.202.1.283.12l-.202.162c.605.08 1.15.181 1.614.322.464.14.989.1 1.533-.14.162-.061.323-.081.485-.122.161-.02.343-.06.484-.12.242-.02.383-.121.424-.282.06-.161.141-.342.302-.503.142-.161.384-.323.707-.463.322-.141.867-.222 1.634-.222v-.624a5.102 5.102 0 0 0 1.331-.604c.364-.241.727-.463 1.09-.684a3.864 3.864 0 0 1 1.19-.463c.444-.1 1.11.04 1.776.14Z" />
    <path fill="#fff"
          d="M194.11 31.992c.021.564-.02.966-.141 1.208a1.79 1.79 0 0 1-.424.564 3.05 3.05 0 0 0-.423.463c-.121.16-.182.463-.182.865-.605.644-1.089 1.127-1.453 1.41a7.946 7.946 0 0 1-1.069.744c-.343.201-.726.402-1.15.644-.424.242-1.009.604-1.735 1.087l-.283.04c-.08.383-.222.624-.423.685-.202.06-.424.1-.666.1-.242 0-.484.02-.727.08-.242.061-.423.283-.585.665-.444.12-.827.181-1.15.161a19.11 19.11 0 0 0-1.231-.04c-.161 0-.363-.02-.605-.04s-.444-.02-.605.04c-.101.02-.222.1-.343.221-.121.121-.242.222-.383.302a.756.756 0 0 1-.404.1c-.141-.02-.242-.12-.363-.321-.323.08-.605.08-.868 0a2.39 2.39 0 0 1-.746-.383 3.923 3.923 0 0 1-.646-.644c-.202-.241-.383-.463-.565-.684a4.096 4.096 0 0 0-.424-.423c-.161-.12-.302-.262-.423-.382a2.415 2.415 0 0 1-.626-1.087 7.436 7.436 0 0 1-.242-1.369c-.02-.463-.02-.926.04-1.389.061-.463.142-.886.243-1.248a1.77 1.77 0 0 0 .484-.805c.101-.302.161-.604.242-.906.06-.302.141-.624.242-.906.101-.302.262-.563.484-.805a2.3 2.3 0 0 1 .182-.926c.121-.282.282-.563.464-.805a5.71 5.71 0 0 1 .666-.724c.242-.222.484-.423.686-.645.202 0 .423 0 .625-.02s.404 0 .585.04c.182.04.343.121.464.242.121.12.243.302.323.564.182.704.141 1.268-.141 1.69-.282.423-.585.826-.928 1.228a5.127 5.127 0 0 0-.827 1.208c-.202.423-.162.946.161 1.59-.282 0-.484.08-.565.242a1.5 1.5 0 0 0-.202.523c-.04.201-.101.383-.181.564-.081.18-.242.302-.464.382.161.161.242.423.262.805.02.383.061.765.121 1.107.061.343.182.624.363.826.162.201.484.221.969.04.343.282.746.403 1.251.342a7.79 7.79 0 0 1 1.351-.04c.364-.242.686-.362.949-.362.262-.02.504.02.746.08s.485.12.747.181c.262.06.585.02.948-.12.101-.443.283-.705.545-.786a3.6 3.6 0 0 1 .787-.14c.262-.02.504-.06.726-.141.222-.08.384-.343.444-.785.202-.262.464-.403.747-.443.282-.04.585-.08.887-.141.303-.06.585-.161.828-.322.242-.161.423-.503.524-.986.444-.343.767-.584.969-.765.201-.181.363-.302.484-.403.121-.1.303-.221.504-.342.303-.181.646-.403 1.15-.705Zm-7.647-17.39c-.464.18-.726.462-.786.825-.061.362-.081.744-.061 1.127.02.382 0 .745-.06 1.087-.061.342-.323.563-.787.664a4.65 4.65 0 0 0-.686-.866 29.58 29.58 0 0 1-.807-.825 3.6 3.6 0 0 1-.626-.865c-.161-.302-.202-.685-.161-1.128l1.977-2.254c.323.1.565.241.747.382.181.161.343.343.464.544s.262.423.383.644c.101.201.242.443.403.664Z" />
    <path fill="#fff"
          d="M218.625 34.75a83.842 83.842 0 0 0-.847 1.49 8.35 8.35 0 0 1-.586.925 5.134 5.134 0 0 1-.665.665c-.243.201-.606.443-1.05.724a6.228 6.228 0 0 1-.867.665 5.867 5.867 0 0 1-.686.462c-.222.121-.404.202-.525.202-.06 0-.101 0-.161-.02-.061-.02-.101-.02-.162-.02-.161 0-.302 0-.443.02-.142.02-.263-.08-.384-.302-.081.08-.141.16-.202.282-.06.1-.101.2-.161.281-.061.08-.121.161-.222.222-.101.06-.222.06-.383 0l-.202-.242-.585.503a20.075 20.075 0 0 0-2.099-.905 9.91 9.91 0 0 1-1.795-.866 4.568 4.568 0 0 1-1.332-1.308c-.363-.524-.625-1.268-.787-2.194a2.562 2.562 0 0 0-.424-.403c-.161-.12-.343-.14-.544-.1a4.694 4.694 0 0 1-.949 1.127c-.363.302-.726.644-1.109 1.006-.142.12-.242.282-.323.423-.081.14-.182.302-.323.423a1.506 1.506 0 0 1-.747.483c-.282.08-.585.18-.867.261a2.47 2.47 0 0 0-.807.383c-.242.18-.424.483-.525.926-.323-.181-.625-.242-.948-.161-.242.06-.484.1-.747.18-.262.061-.524.102-.766.122-.242.02-.485-.02-.727-.101-.242-.08-.444-.242-.625-.503-.363.16-.706.14-1.029-.02-.323-.161-.605-.403-.888-.705a18.203 18.203 0 0 1-.807-.946c-.262-.342-.504-.584-.747-.745-.161-.422-.141-.765.021-1.067.161-.302.363-.583.544-.845.202-.282.343-.543.424-.825.081-.262-.04-.604-.363-.986.262-.383.504-.806.706-1.228.202-.423.424-.846.646-1.289.222-.422.464-.845.706-1.248.242-.402.565-.744.928-1.026-.161-.181-.242-.362-.242-.523 0-.162.04-.343.121-.504.081-.16.161-.342.282-.503.101-.16.182-.322.243-.483l1.15-.544-.283-.925c.283.06.505.04.646-.04a.884.884 0 0 0 .323-.343c.06-.16.121-.322.161-.523.04-.201.101-.363.182-.524.121-.241.323-.402.585-.503a31.547 31.547 0 0 0 1.634-1.328c.545-.463 1.069-.926 1.614-1.349.545-.443 1.09-.865 1.675-1.268a10.07 10.07 0 0 1 1.896-1.026c.465.08.848.22 1.13.422.283.201.485.463.626.745.141.282.262.604.343.946l.242 1.027c.121.442.282.805.464 1.127.182.302.504.563.948.785-.363.624-.504 1.228-.423 1.852.08.604.161 1.248.242 1.912a6.24 6.24 0 0 1-.02 1.832c-.101.603-.485 1.127-1.171 1.59a1.42 1.42 0 0 0-.04.583c.02.202.04.423.04.624 0 .202-.04.403-.121.584a.863.863 0 0 1-.423.423c.242.282.363.563.383.845.02.282.02.564.04.805.02.262.081.483.202.705.121.201.404.362.847.463.081.342.142.584.222.765.061.16.142.302.243.402.1.101.221.202.383.282.161.1.363.222.625.403.202.06.444.06.707 0 .262-.06.464.02.625.241a.775.775 0 0 1 .464-.221c.182-.02.363 0 .504.02l.505.845c.282-.2.625-.382.989-.543a8.591 8.591 0 0 1 1.069-.383c.403-.1.787-.2 1.19-.261l3.612-2.154Zm-15.133-13.285a6.436 6.436 0 0 1-.867.624 10.92 10.92 0 0 0-1.009.664 5.174 5.174 0 0 0-.847.765 1.69 1.69 0 0 0-.424.946c-.605.1-1.029.343-1.251.745-.242.383-.424.825-.585 1.288-.162.463-.323.926-.505 1.369-.181.463-.504.805-.988 1.067-.162.1-.303.16-.424.16.02 0-.06.061-.242.162a2.797 2.797 0 0 0-.747.785 5.304 5.304 0 0 0-.524 1.006c-.141.363-.283.725-.404 1.107-.121.383-.222.725-.343 1.027-.363.06-.645.12-.827.242-.182.1-.303.22-.343.322-.04.12-.04.261.02.402.061.161.121.322.242.503.101.161.222.343.343.544.121.201.222.422.303.624.081.201.121.422.141.624a.808.808 0 0 1-.181.584c.363.281.726.342 1.069.18a6.17 6.17 0 0 0 .948-.563c.101-.08.222-.16.343-.262.121-.08.242-.16.384-.221.605.12 1.15.08 1.654-.12a4.574 4.574 0 0 0 1.372-.846c.424-.362.827-.745 1.231-1.168a9.72 9.72 0 0 1 1.19-1.087l-.322-.302c.464-.12.807-.301 1.008-.523.202-.221.323-.463.384-.765a2.3 2.3 0 0 0 0-.905 7.845 7.845 0 0 1-.121-1.027 2.906 2.906 0 0 1-.02-.604c.02-.201.06-.402.141-.604-.202-.604-.242-1.167-.101-1.71a8.631 8.631 0 0 1 .585-1.57c.242-.504.484-1.007.726-1.53a3.844 3.844 0 0 0 .364-1.631l-1.373-.302Z" />
    <path fill="#fff"
          d="M238.64 37.427c.02.302-.02.544-.161.705a1.043 1.043 0 0 1-.525.342c-.222.08-.464.14-.726.18a1.99 1.99 0 0 0-.666.222 24.04 24.04 0 0 1-2.199-.322 7.9 7.9 0 0 1-1.978-.664 5.859 5.859 0 0 1-1.634-1.188c-.484-.483-.908-1.107-1.251-1.871.343-.544.464-1.148.363-1.812-.101-.664-.201-1.308-.302-1.912a4.387 4.387 0 0 1 .04-1.711c.121-.524.565-.926 1.352-1.248-.061-.282-.04-.604.02-.926a.842.842 0 0 0-.303-.846 6.964 6.964 0 0 0-2.401 1.329 19.006 19.006 0 0 0-1.957 1.872c-.625.664-1.231 1.348-1.856 2.033a12.345 12.345 0 0 1-2.038 1.812c-.343.02-.706 0-1.089-.06-.384-.061-.707.04-.969.321.02.181.101.342.202.463.101.12.181.262.262.383.061.12.101.261.101.402 0 .141-.101.302-.282.483a4.293 4.293 0 0 1-.848.644 7.82 7.82 0 0 0-.867.544 2.747 2.747 0 0 0-.686.684c-.182.262-.283.604-.283 1.047-.161-.08-.303-.1-.424-.06-.121.04-.262.12-.383.22-.121.102-.222.222-.343.343-.101.12-.202.242-.323.302-.06.12-.04.242.041.322.08.08.161.181.282.282-.101.282-.242.463-.424.523a.836.836 0 0 1-.544.02 2.18 2.18 0 0 1-.586-.261 4.717 4.717 0 0 0-.524-.282c-.081-.342-.121-.725-.162-1.168a7.07 7.07 0 0 1 .041-1.308c.06-.423.161-.825.323-1.228a2.45 2.45 0 0 1 .706-.966c.101-.08.181-.12.242-.161.06-.02.121-.08.202-.161.201-.242.363-.483.423-.765.081-.262.142-.543.202-.825.061-.282.121-.564.222-.825a2.08 2.08 0 0 1 .484-.725c-.101-.423-.101-.785.021-1.107.121-.322.282-.624.464-.926.201-.302.403-.604.585-.886.181-.281.323-.624.383-.986.02-.12.04-.262.02-.362-.02-.121-.02-.242-.02-.363-.06-.422 0-.724.141-.946.142-.221.323-.402.545-.543.222-.141.464-.302.706-.443.242-.161.464-.382.646-.704.767.362 1.21.845 1.352 1.449.141.604.181 1.288.141 2.033a2.82 2.82 0 0 0-1.029 1.187c-.242.503-.404.987-.464 1.45.06.16.121.241.222.241.101.02.202 0 .323-.04s.222-.08.343-.141a.592.592 0 0 1 .323-.08 33.215 33.215 0 0 0 2.824-2.174c.928-.806 1.655-1.711 2.179-2.758a13.484 13.484 0 0 0 2.159-1.268 7.65 7.65 0 0 1 2.24-1.067l.908-.886c.121.202.282.262.464.141.181-.12.363-.261.545-.402a.988.988 0 0 1 .524-.262c.162-.02.343.161.484.544.263.664.323 1.328.202 1.952a10.656 10.656 0 0 1-.605 1.872c-.283.604-.565 1.228-.848 1.852-.282.624-.464 1.248-.504 1.892v.483c0 .161-.02.342-.04.523-.061.544-.121 1.128-.222 1.772-.101.644-.061 1.207.101 1.73.121.464.403.886.827 1.249.424.362.787.724 1.11 1.087.181-.02.363-.02.544.04.182.06.364.1.525.16.161.061.343.081.484.061.162-.02.323-.1.464-.261a.54.54 0 0 1 .525.02c.161.1.343.201.484.322.141.12.323.241.484.322.263.12.444.12.666.04ZM254.257 37.367l-.222-.282 2.018.483v1.268h-6.033v-1.268l2.038-.483-.222.282V22.029l.201.221-2.017-.463V20.52l4.237-.161v17.009ZM262.126 37.367l-.222-.282 2.038.483v1.268h-6.033v-1.268l2.038-.483-.242.282v-9.602l.222.222-2.018-.463v-1.268l4.217-.141v11.252Zm-1.332-13.587c-.444 0-.787-.141-1.069-.403-.283-.261-.424-.644-.424-1.147s.141-.886.444-1.147c.282-.262.646-.403 1.09-.403.443 0 .827.141 1.109.403.283.261.424.644.424 1.147s-.141.886-.444 1.147a1.724 1.724 0 0 1-1.13.403ZM265.536 38.816v-1.268l2.159-.503-.343.483v-15.6l.222.302-2.038-.463v-1.268l4.237-.161v11.05l-.444-.362h3.268l-.605.282 2.421-3.824.202.281-1.896-.281v-1.269l5.528-.16v1.247l-2.139.463.686-.402-2.946 4.569v-.664l3.471 6.18-.404-.363 1.937.483v1.248h-3.309l-3.43-6.34.444.2h-3.168l.444-.22v5.072l-.282-.483 2.038.503v1.268h-6.053ZM285.349 39.057c-1.11 0-2.098-.241-2.946-.724-.847-.483-1.513-1.208-1.977-2.154-.484-.946-.706-2.093-.706-3.462 0-1.389.242-2.597.746-3.603.505-1.006 1.191-1.791 2.099-2.335.908-.544 1.977-.825 3.208-.825 1.17 0 2.139.241 2.885.724a4.333 4.333 0 0 1 1.675 1.973c.363.825.545 1.791.545 2.858 0 .201-.001.423-.021.624s-.04.443-.08.725h-9.181v-1.65h7.002l-.222.14a5.133 5.133 0 0 0-.243-1.791 2.862 2.862 0 0 0-.887-1.309c-.424-.322-.969-.483-1.675-.483-.767 0-1.392.202-1.897.604-.504.403-.867.966-1.109 1.65-.242.705-.363 1.51-.363 2.416 0 .966.141 1.812.403 2.536.283.725.686 1.289 1.251 1.691.565.403 1.251.604 2.078.604.585 0 1.211-.12 1.897-.342.686-.222 1.392-.564 2.118-1.007l.848 1.309c-.908.624-1.816 1.087-2.744 1.389a8.729 8.729 0 0 1-2.704.442ZM309.339 28.289l-.343.08c.787-.805 1.634-1.409 2.502-1.811.888-.403 1.715-.604 2.502-.604.989 0 1.816.322 2.502.986.686.644 1.009 1.65 1.009 2.98v7.567l-.263-.382 2.058.483v1.268h-5.851v-1.268l1.957-.483-.323.403v-7.046c0-.925-.201-1.59-.585-2.032-.383-.423-.887-.645-1.533-.645-.525 0-1.09.161-1.735.463-.646.302-1.271.785-1.897 1.39l.202-.544c.02.14.02.282.04.402 0 .121.02.242.02.343v7.628l-.262-.382 1.897.483v1.268h-5.69v-1.268l1.957-.483-.323.402v-7.045c0-.925-.202-1.59-.585-2.033a2.013 2.013 0 0 0-1.513-.644c-.525 0-1.11.141-1.735.443-.626.302-1.251.745-1.857 1.349l.162-.403v8.313l-.262-.382 1.916.463v1.268h-5.851v-1.268l2.139-.503-.343.402v-9.883l.343.423-2.139-.503v-1.269l3.672-.16.323 2.314-.323-.12c.767-.806 1.594-1.39 2.482-1.772.888-.382 1.715-.564 2.502-.564.746 0 1.412.182 1.977.564.565.423.989 1.006 1.251 1.812ZM325.864 39.057c-1.11 0-2.099-.241-2.946-.724-.848-.483-1.513-1.208-1.977-2.154-.485-.946-.707-2.093-.707-3.462 0-1.389.243-2.597.747-3.603.504-1.006 1.19-1.791 2.098-2.335.908-.544 1.978-.825 3.208-.825 1.171 0 2.139.241 2.886.724a4.337 4.337 0 0 1 1.674 1.973c.363.825.545 1.791.545 2.858 0 .201 0 .423-.02.624s-.04.443-.081.725h-9.18v-1.65h7.001l-.222.14a5.133 5.133 0 0 0-.242-1.791 2.863 2.863 0 0 0-.888-1.309c-.423-.322-.968-.483-1.674-.483-.767 0-1.393.202-1.897.604-.504.403-.868.966-1.11 1.65-.242.705-.363 1.51-.363 2.416 0 .966.141 1.812.404 2.536.282.725.686 1.289 1.251 1.691.565.403 1.251.604 2.078.604.585 0 1.21-.12 1.896-.342.686-.222 1.393-.564 2.119-1.007l.847 1.309c-.908.624-1.816 1.087-2.744 1.389a8.634 8.634 0 0 1-2.703.442Z" />
    <path stroke="#fff" stroke-miterlimit="10" stroke-width=".5" d="M117.661 5.12H346v47.484H1V5.121h39.768" />
</svg>